<svg width="102" height="103" viewBox="0 0 102 103" fill="none" xmlns="http://www.w3.org/2000/svg">
<rect x="3" y="3.50006" width="96" height="96.5" rx="48" stroke="#D2D2D2" stroke-width="6"/>
<path d="M20.0036 52.3455C20.1617 51.1918 20.2577 50.026 20.4899 48.8858C22.7717 37.4685 29.2972 29.4149 40.1492 25.2914C57.0259 18.8789 75.551 28.2211 80.7272 45.471C81.5671 48.2754 81.9963 51.1868 82.0012 54.1142C82.0231 59.7353 77.9361 63.8855 72.3126 63.9123C67.3106 63.9366 62.3071 63.9342 57.3019 63.905C56.7682 63.905 56.5603 64.0411 56.4096 64.5785C55.7288 66.9891 53.4921 68.618 50.9866 68.6107C49.7566 68.6143 48.5596 68.2129 47.5804 67.4686C46.6012 66.7242 45.8942 65.6783 45.5685 64.4921C45.447 64.0278 45.2537 63.9062 44.7929 63.9074C39.7683 63.9244 34.7437 63.9269 29.719 63.9147C25.5445 63.9013 22.0714 61.5928 20.6491 57.8742C20.3574 57.1096 20.2115 56.2939 19.9988 55.494L20.0036 52.3455ZM57.2022 53.0153C57.2635 53.0367 57.3266 53.0529 57.3906 53.0639C62.01 53.0639 66.6295 53.0834 71.2562 53.0639C72.5934 53.0566 73.5659 51.8106 73.3337 50.4904C72.4341 45.3434 70.0612 40.9853 66.1845 37.4892C61.959 33.6733 56.9591 31.7489 51.2626 31.6359C50.3423 31.6176 49.7807 31.1362 49.8038 30.3886C49.8269 29.641 50.38 29.1572 51.3234 29.2265C52.8283 29.3395 54.3491 29.421 55.8212 29.703C65.9378 31.6286 73.9342 39.7502 75.6896 49.8291C76.1759 52.6251 74.5287 55.0345 71.7874 55.4405C71.0751 55.545 70.3384 55.4916 69.6126 55.4928C65.4746 55.4928 61.337 55.4899 57.1998 55.4843C56.784 55.4843 56.5919 55.573 56.5214 56.0143C56.4203 56.6514 56.2761 57.2809 56.0899 57.8985C55.7665 58.9853 55.6036 60.0247 56.3123 61.0592C56.5008 61.3327 56.6017 61.509 56.9651 61.509C62.0915 61.4968 67.2178 61.5308 72.3442 61.4907C76.6573 61.4567 79.6939 58.3447 79.5505 54.0194C79.5017 52.0048 79.2669 49.999 78.8491 48.0275C75.4027 32.4844 59.7429 22.7532 44.3164 26.4974C31.4781 29.6155 22.52 40.9452 22.4349 54.1835C22.407 58.2997 25.3525 61.4275 29.4637 61.4774C34.6703 61.5418 39.8781 61.4907 45.0847 61.5029C45.4287 61.5029 45.571 61.3813 45.684 61.0677C46.0994 59.8535 46.9247 58.822 48.018 58.1502C48.1735 58.065 48.2988 57.9338 48.3766 57.7745C48.6295 57.0378 48.8483 56.289 49.0939 55.4928H48.2988C42.5675 55.4928 36.8358 55.4928 31.1036 55.4928C27.8482 55.4928 25.7013 52.9399 26.3456 49.7452C28.0098 41.4716 32.6463 35.4445 40.1832 31.6565C41.1825 31.1545 41.8778 31.2918 42.2279 31.9957C42.5926 32.7251 42.2365 33.3329 41.2177 33.8459C34.3591 37.3129 30.1433 42.7918 28.6967 50.3591C28.4025 51.9006 29.4066 53.0688 30.9784 53.07C37.0931 53.07 43.209 53.07 49.3236 53.0846C49.7686 53.0846 49.9047 52.912 50.0165 52.5376C50.5344 50.8004 51.0754 49.0693 51.6102 47.337C52.2181 45.3738 52.8028 43.4032 53.4446 41.4521C53.6473 40.8104 54.0571 40.2541 54.61 39.8704C55.1629 39.4867 55.8275 39.2973 56.4995 39.3321C57.917 39.405 59.1338 40.2985 59.3916 41.6491C59.5216 42.3347 59.4414 43.0981 59.2919 43.791C58.6342 46.8617 57.9121 49.9203 57.2022 53.0153ZM50.9842 66.188C51.6235 66.1887 52.2488 65.9998 52.7807 65.6451C53.3127 65.2905 53.7276 64.7861 53.9729 64.1956C54.2182 63.6052 54.2828 62.9553 54.1587 62.3281C54.0346 61.7009 53.7273 61.1246 53.2756 60.6721C52.824 60.2196 52.2482 59.9112 51.6213 59.7859C50.9943 59.6606 50.3443 59.724 49.7534 59.9682C49.1625 60.2124 48.6573 60.6263 48.3016 61.1576C47.946 61.6889 47.7559 62.3138 47.7555 62.9531C47.7577 63.8093 48.0984 64.6299 48.7032 65.2359C49.3081 65.8419 50.128 66.1841 50.9842 66.188ZM53.6185 57.8207C53.6343 57.7599 53.6635 57.6675 53.6841 57.5776C54.6104 53.5117 55.5359 49.4458 56.4606 45.3799C56.6661 44.4754 56.9031 43.5771 57.0478 42.6641C57.0564 42.5152 57.0301 42.3663 56.971 42.2294C56.9119 42.0924 56.8217 41.9711 56.7074 41.8752C56.5312 41.7536 56.1251 41.8569 55.9027 41.9967C55.7361 42.0989 55.6802 42.4076 55.6097 42.635C54.5642 45.9974 53.5208 49.3619 52.4794 52.7284C52.0163 54.2249 51.5592 55.7237 51.1106 57.1874L53.6185 57.8207Z" fill="#D2D2D2"/>
<path d="M50.989 80.2249C49.2348 80.2249 47.4806 80.2529 45.7265 80.2188C44.5653 80.1956 43.4526 79.7491 42.5974 78.9633C41.7422 78.1775 41.2034 77.1063 41.0824 75.9513C40.9613 74.7962 41.2662 73.6366 41.9399 72.6905C42.6135 71.7444 43.6095 71.0769 44.7406 70.8134C45.1735 70.7167 45.616 70.6694 46.0596 70.6724C49.3661 70.6603 52.6738 70.6457 55.9804 70.6724C58.9271 70.6967 61.0216 72.8411 60.9365 75.6881C60.8648 78.0671 58.8785 80.1301 56.4934 80.2079C54.6602 80.2675 52.8246 80.22 50.989 80.22V80.2249ZM51.0011 77.8058C52.6751 77.8058 54.349 77.8131 56.0241 77.8058C57.4732 77.7973 58.5041 76.8333 58.5174 75.4961C58.5308 74.1589 57.5303 73.1037 56.0922 73.094C52.703 73.0672 49.3138 73.0672 45.9246 73.094C44.4865 73.1049 43.4812 74.1358 43.4933 75.4839C43.5055 76.8321 44.5339 77.7936 45.9793 77.8058C47.652 77.8131 49.326 77.8058 51.0023 77.8058H51.0011Z" fill="#D2D2D2"/>
<path d="M68.4687 50.7749C68.0262 50.7749 67.5825 50.7955 67.1412 50.7749C66.846 50.7683 66.5645 50.6492 66.3542 50.442C66.1438 50.2348 66.0205 49.9552 66.0094 49.6601C65.9718 49.0146 66.3875 48.4311 67.0403 48.3946C68.0246 48.3405 69.0112 48.3405 69.9955 48.3946C70.6471 48.4299 71.0896 49.0243 71.0483 49.6504C71.0318 49.9554 70.8992 50.2425 70.6776 50.4528C70.456 50.663 70.1624 50.7804 69.8569 50.7809C69.395 50.8004 68.9318 50.7809 68.4687 50.7809V50.7749Z" fill="#D2D2D2"/>
<path d="M33.4524 50.7761C33.0099 50.7761 32.5662 50.7943 32.1249 50.7761C31.8196 50.7694 31.5284 50.6459 31.3113 50.4311C31.0943 50.2163 30.9678 49.9265 30.9579 49.6212C30.9385 49.314 31.0411 49.0116 31.2435 48.7796C31.4459 48.5476 31.7316 48.4049 32.0386 48.3825C33.0032 48.3339 33.9696 48.3339 34.9342 48.3825C35.5943 48.4165 36.0222 48.9769 36.0004 49.6212C35.9785 50.2655 35.5141 50.725 34.8394 50.7749C34.7993 50.7749 34.758 50.7749 34.7179 50.7749H33.4524V50.7761Z" fill="#D2D2D2"/>
<path d="M64.6175 39.106C64.3829 39.5144 64.2662 39.8463 64.0449 40.0785C63.487 40.6608 62.8925 41.209 62.2932 41.7488C61.7255 42.2605 61.0399 42.252 60.5597 41.7633C60.0795 41.2747 60.0844 40.5477 60.646 39.9909C61.2344 39.4087 61.8398 38.8446 62.4512 38.289C62.8487 37.9244 63.3496 37.8125 63.7884 38.1164C64.1167 38.3438 64.3257 38.7449 64.6175 39.106Z" fill="#D2D2D2"/>
<path d="M37.4165 39.0403C37.6949 38.7145 37.9186 38.3304 38.2504 38.0994C38.6455 37.8259 39.1281 37.9159 39.488 38.2344C40.1663 38.8422 40.8337 39.45 41.4658 40.1052C41.6758 40.3265 41.7932 40.6198 41.7937 40.9249C41.7942 41.2301 41.6779 41.5238 41.4686 41.7458C41.2594 41.9678 40.973 42.1013 40.6684 42.1188C40.3638 42.1363 40.0641 42.0365 39.8308 41.8399C39.1476 41.2427 38.4903 40.6174 37.859 39.9642C37.6657 39.7648 37.6013 39.4415 37.4165 39.0403Z" fill="#D2D2D2"/>
<path d="M52.2181 35.7423C52.2181 36.1641 52.2375 36.5932 52.2181 37.0077C52.1779 37.7007 51.6686 38.1808 51.0109 38.1784C50.8546 38.1805 50.6994 38.1515 50.5544 38.0931C50.4093 38.0348 50.2773 37.9481 50.166 37.8383C50.0547 37.7285 49.9664 37.5977 49.9061 37.4534C49.8458 37.3092 49.8147 37.1544 49.8147 36.998C49.788 36.1349 49.788 35.2714 49.8147 34.4075C49.816 34.0886 49.9439 33.7833 50.1703 33.5588C50.3967 33.3342 50.703 33.2088 51.0219 33.2101C51.3407 33.2114 51.646 33.3393 51.8706 33.5657C52.0951 33.792 52.2206 34.0984 52.2193 34.4172C52.2314 34.8573 52.2181 35.2973 52.2181 35.7423Z" fill="#D2D2D2"/>
<path d="M45.8578 29.7747C46.175 29.7662 46.4827 29.884 46.713 30.1023C46.9434 30.3206 47.0776 30.6214 47.0862 30.9387C47.0947 31.2559 46.9769 31.5636 46.7586 31.7939C46.5403 32.0243 46.2394 32.1585 45.9222 32.1671C45.6049 32.1756 45.2973 32.0578 45.0669 31.8395C44.8366 31.6212 44.7023 31.3203 44.6938 31.0031C44.6852 30.6858 44.8031 30.3782 45.0214 30.1478C45.2397 29.9175 45.5405 29.7832 45.8578 29.7747Z" fill="#D2D2D2"/>
</svg>
