<svg width="102" height="103" viewBox="0 0 102 103" fill="none" xmlns="http://www.w3.org/2000/svg">
<rect x="3" y="3.50006" width="96" height="96.5" rx="48" stroke="#D2D2D2" stroke-width="6"/>
<g clip-path="url(#clip0_25_97)">
<path d="M49.2885 67.9799C49.3547 67.3728 49.726 67.1096 50.3057 67.087C50.4251 67.087 50.5462 67.087 50.6673 67.087C58.1019 67.087 65.5366 67.087 72.9712 67.087C74.0223 67.087 74.9684 67.305 75.7014 68.1123C76.2206 68.6585 76.5127 69.3818 76.5184 70.1354C76.5329 73.3112 76.5459 76.4887 76.5184 79.6614C76.5039 81.2292 75.3188 82.5176 73.8947 82.6274C73.8737 82.6274 73.8544 82.6274 73.8334 82.6274H28.3134C28.152 82.6274 27.9905 82.5644 27.8791 82.7469H27.758C27.7257 82.6226 27.6095 82.6371 27.519 82.6048C26.0385 82.0687 25.3006 81.0403 25.2909 79.4499C25.2796 77.3978 25.2909 75.344 25.2909 73.2903C25.2909 71.5998 25.3151 69.8996 25.2909 68.2172C25.2671 67.6944 25.3583 67.1728 25.5581 66.689C25.7578 66.2053 26.0612 65.7713 26.447 65.4175C27.7257 64.1889 28.9625 62.9182 30.2202 61.6669C31.5652 60.3268 33.0086 60.1766 34.5619 61.2342C34.775 61.3795 34.8848 61.3956 35.0591 61.2067C35.3611 60.8838 35.684 60.5786 35.9972 60.2654C40.9604 55.314 45.9258 50.3626 50.8934 45.4112C51.2163 45.0964 51.2809 44.8897 51.0548 44.4586C50.1507 42.7084 50.5349 40.6886 52.0236 39.2048C54.6887 36.516 57.3641 33.8358 60.0497 31.1642C61.5631 29.6572 63.0754 28.1503 64.5866 26.6433C65.1614 26.0702 65.423 26.0362 66.1286 26.4173C66.4838 27.1697 66.4515 27.3618 65.8638 27.9544C61.6659 32.1523 57.4679 36.3454 53.27 40.5336C52.1834 41.6186 52.0785 43.2041 53.1086 44.273C54.4697 45.6954 55.9002 47.0517 57.3065 48.437C57.6116 48.7599 57.899 49.0973 58.2284 49.3896C58.7249 49.8554 59.3589 50.1481 60.0356 50.2238C60.7122 50.2994 61.3952 50.154 61.9823 49.8094C62.1372 49.7392 62.2625 49.6168 62.3362 49.4637C62.41 49.3105 62.4276 49.1362 62.386 48.9714C61.9177 45.8004 64.7303 43.6933 66.8454 43.8467C67.3944 43.8871 67.5058 43.7079 67.5058 43.1815C67.5058 40.7693 69.5289 38.6994 71.8652 38.6607C72.6612 38.6461 72.6612 38.6461 72.6725 37.8114C72.7371 35.2135 75.3365 33.0904 77.9037 33.5424C78.1217 33.5796 78.3429 33.6522 78.5237 33.4488C79.0969 32.803 79.4069 32.0619 79.2794 31.1884C79.1082 30.0049 78.1911 29.3558 77.4113 28.605C75.9662 27.1519 74.5309 25.6988 73.0745 24.2537C72.6731 23.8811 72.1537 23.6612 71.6069 23.6321C70.4766 23.5175 69.6774 24.0455 68.9928 24.8431C68.5391 25.371 68.0241 25.6052 67.3573 25.2451C66.9714 24.3926 67.015 24.2537 67.6802 23.5627C68.5343 22.6682 69.4821 21.9756 70.7608 21.8206C71.6842 21.6903 72.6248 21.8637 73.441 22.3146C73.7526 22.4874 73.9351 22.4583 74.145 22.1952C75.3963 20.6064 77.1287 20.3125 78.7708 22.2032C79.3762 22.9007 80.0624 23.5336 80.7325 24.1682C81.2766 24.68 81.7384 25.2354 81.9838 25.9442V27.1519C81.6136 27.7888 81.1412 28.3604 80.5855 28.844C80.3676 29.0216 80.458 29.1669 80.5516 29.3591C81.5801 31.4403 81.2152 33.3955 79.5119 34.9956C79.3231 35.1907 79.0852 35.3315 78.8233 35.4031C78.5614 35.4747 78.285 35.4745 78.0232 35.4024C75.7967 34.9019 74.1482 36.5327 74.589 38.7575C74.8506 40.0492 74.0626 40.821 72.7581 40.553C70.6026 40.109 68.9605 41.7429 69.3997 43.8952C69.671 45.2336 68.8863 46.007 67.5559 45.7148C65.494 45.2595 63.7648 46.9096 64.2185 48.9698C64.4139 49.8562 64.1507 50.4504 63.4774 50.9557C61.8935 52.1424 60.1837 52.3749 58.3544 51.6177C58.0879 51.5079 57.92 51.4562 57.6827 51.692C52.6 56.7898 47.5113 61.8714 42.4168 66.9369C42.5185 67.1742 42.7058 67.0773 42.8447 67.079C44.0136 67.0865 45.1831 67.0865 46.3532 67.079C46.9828 67.079 47.3978 67.3292 47.4979 67.9847C47.3235 68.7129 47.0539 68.926 46.2627 68.9277C44.4076 68.9277 42.5492 68.9115 40.6957 68.9406C40.3973 68.958 40.0988 68.9092 39.8216 68.7975C39.5443 68.6858 39.2953 68.5141 39.0924 68.2947C37.3163 66.4799 35.5128 64.6942 33.7077 62.9085C32.9941 62.2013 32.3074 62.1722 31.6475 62.8213C30.2687 64.1776 28.9027 65.5516 27.5368 66.9159C27.4098 67.0312 27.3081 67.1718 27.2384 67.3286C27.1686 67.4853 27.1322 67.6549 27.1315 67.8265C27.1391 71.0654 27.1466 74.3053 27.1541 77.5463C27.1541 78.2503 27.1348 78.9542 27.1396 79.6582C27.1396 80.2604 27.4787 80.6269 28.0244 80.8191C28.3149 80.9047 28.6182 80.9386 28.9205 80.9192H72.913C73.0535 80.9192 73.1956 80.9192 73.3361 80.9192C74.1434 80.8675 74.6681 80.3831 74.7052 79.5904C74.7359 78.909 74.6907 78.2244 74.6794 77.5398C74.6902 75.2482 74.7009 72.9577 74.7117 70.6682C74.7117 69.3539 74.2967 68.9406 72.9792 68.9406H57.3904C55.0945 68.9406 52.7986 68.9406 50.5026 68.9406C49.697 68.9293 49.4418 68.7178 49.2885 67.9799ZM77.9506 26.4851C78.2363 26.7886 78.5383 27.0793 78.8079 27.3973C79.0775 27.7154 79.2454 27.6702 79.5215 27.3973C80.3853 26.5319 80.3983 26.406 79.5215 25.5341C79.3811 25.3953 79.2277 25.2693 79.0808 25.1353C78.3929 24.4378 77.7132 23.7306 77.0141 23.0364C76.5636 22.5907 76.3085 22.6069 75.8435 23.0541C75.6982 23.193 75.5707 23.3512 75.414 23.4755C75.1751 23.6644 75.2251 23.7984 75.4253 23.9954C76.273 24.814 77.1094 25.6487 77.9506 26.4786V26.4851ZM54.996 48.7873C54.3195 48.0995 53.6188 47.4327 52.9762 46.7158C52.6307 46.3283 52.4434 46.3784 52.0962 46.7271C47.6335 51.2081 43.1606 55.6811 38.6774 60.1459C37.9089 60.9145 37.1403 61.6846 36.3653 62.4483C36.2039 62.6098 36.057 62.7212 36.3137 62.9618C37.1048 63.7029 37.8701 64.473 38.6451 65.2319C38.9777 65.5806 39.3378 65.9052 39.6365 66.2797C39.9594 66.6979 40.179 66.664 40.5552 66.2797C45.3989 61.4134 50.2561 56.5567 55.1268 51.7097C55.5918 51.2463 56.454 50.7894 56.3894 50.2889C56.32 49.748 55.5288 49.2992 55.0509 48.8116C55.0364 48.797 55.0138 48.7954 54.996 48.7873Z" fill="#D2D2D2"/>
<path d="M20.0112 32.6013C20.2776 32.1864 20.247 31.6939 20.3503 31.2386C21.7631 25.0612 27.4464 20.6954 33.8353 20.9117C40.1612 21.1184 45.5669 25.8798 46.5388 32.1056C47.6965 39.5085 42.7316 46.272 35.282 47.4442C28.3037 48.5211 21.4644 43.6128 20.2292 36.6361C20.184 36.3794 20.2486 36.0727 20.0112 35.8628V32.6013ZM44.9146 34.2579C44.9598 28.0094 39.7657 22.7572 33.4978 22.7104C27.1477 22.6635 21.8874 27.7785 21.8293 34.0544C21.7711 40.4563 26.9087 45.7133 33.2637 45.7537C36.3324 45.7718 39.2829 44.5713 41.4673 42.416C43.6517 40.2606 44.8915 37.3265 44.9146 34.2579Z" fill="#D2D2D2"/>
<path d="M36.1185 31.1141C36.1185 32.2605 36.1298 33.4052 36.1185 34.5516C36.1228 35.2634 35.8504 35.9491 35.3588 36.4639C34.8672 36.9787 34.1948 37.2824 33.4835 37.3109C31.9884 37.3642 30.7258 36.3082 30.6483 34.776C30.5272 32.3541 30.5369 29.9129 30.6483 27.4845C30.6793 26.7724 30.9905 26.1014 31.5139 25.6175C32.0374 25.1337 32.7307 24.8762 33.4431 24.9012C34.9689 24.9496 36.1136 26.1573 36.1265 27.7461C36.1265 28.8634 36.1185 29.9887 36.1185 31.1141ZM34.3021 31.1512C34.3021 30.021 34.3021 28.8908 34.3021 27.7703C34.3021 27.139 33.9226 26.7208 33.385 26.7111C32.8473 26.7015 32.4324 27.1132 32.4324 27.7429C32.4195 29.9764 32.4195 32.2104 32.4324 34.445C32.4324 35.0908 32.8102 35.4896 33.3511 35.4977C33.892 35.5058 34.294 35.0844 34.2988 34.4127C34.3069 33.3261 34.3021 32.2379 34.3021 31.1512Z" fill="#D2D2D2"/>
<path d="M30.6255 40.8258C30.6255 40.2843 30.7858 39.7548 31.086 39.3041C31.3863 38.8535 31.8132 38.5017 32.3129 38.293C32.8127 38.0844 33.363 38.0283 33.8946 38.1317C34.4262 38.2352 34.9153 38.4936 35.3003 38.8744C35.6854 39.2552 35.9492 39.7414 36.0585 40.2718C36.1679 40.8022 36.1179 41.3531 35.9148 41.8551C35.7118 42.3572 35.3648 42.7879 34.9174 43.0932C34.4701 43.3985 33.9425 43.5646 33.401 43.5706C33.0383 43.5734 32.6786 43.5045 32.3427 43.3679C32.0067 43.2313 31.701 43.0298 31.4431 42.7747C31.1852 42.5197 30.9802 42.2163 30.8399 41.8818C30.6996 41.5474 30.6268 41.1885 30.6255 40.8258ZM33.3557 41.7542C33.5422 41.7585 33.7257 41.7077 33.8833 41.608C34.0409 41.5083 34.1655 41.3643 34.2416 41.194C34.3176 41.0238 34.3416 40.8348 34.3106 40.651C34.2796 40.4671 34.1949 40.2965 34.0673 40.1606C33.9396 40.0247 33.7746 39.9295 33.5931 39.887C33.4115 39.8446 33.2214 39.8567 33.0467 39.9219C32.872 39.9871 32.7205 40.1025 32.6112 40.2536C32.5018 40.4046 32.4396 40.5846 32.4322 40.7709C32.4252 41.0235 32.5184 41.2686 32.6914 41.4528C32.8644 41.637 33.1032 41.7454 33.3557 41.7542Z" fill="#D2D2D2"/>
</g>
<defs>
<clipPath id="clip0_25_97">
<rect width="62" height="62" fill="white" transform="translate(20 20.7501)"/>
</clipPath>
</defs>
</svg>
