<svg width="102" height="102" viewBox="0 0 102 102" fill="none" xmlns="http://www.w3.org/2000/svg">
<rect x="3" y="3.00009" width="96" height="95.5" rx="47.75" stroke="#D2D2D2" stroke-width="6"/>
<g clip-path="url(#clip0_25_99)">
<path d="M19 57.7508C19.2717 57.3788 19.6485 57.2969 20.1037 57.298C23.7372 57.3109 27.3707 57.305 31.0054 57.305H31.7879V56.1598C31.7879 55.348 32.0186 55.1152 32.8578 55.114C35.7696 55.114 38.681 55.114 41.592 55.114H42.29V50.0312C41.1259 50.0312 40.0041 50.0312 38.8823 50.0312C38.037 50.0312 37.8172 49.8089 37.8172 48.9924C37.8172 44.0745 37.8172 39.1566 37.8172 34.2387C37.8172 31.2229 40.1792 28.8798 43.2789 28.8646C48.3989 28.8396 53.5189 28.8396 58.6389 28.8646C61.8075 28.8775 64.1357 31.1481 64.1937 34.2165C64.2009 34.5838 64.1937 34.9523 64.1937 35.4319H65.2189C66.0823 35.4319 66.9457 35.4237 67.8091 35.4319C68.4394 35.4424 68.6761 35.6811 68.6942 36.2882C68.7063 36.693 68.6942 37.0989 68.6942 37.5341C68.8388 37.5675 68.9857 37.591 69.1337 37.6043C70.8243 37.6043 72.5076 37.6195 74.1934 37.6043C75.0386 37.6043 75.4444 37.1972 75.4468 36.3701C75.4565 33.7462 75.4371 31.1212 75.4746 28.4984C75.4746 28.1323 75.7414 27.7708 75.8839 27.407H81.0679C81.4411 27.6819 81.5123 28.0551 81.5099 28.4903C81.4966 31.3481 81.5038 34.2071 81.5026 37.065C81.5026 40.7698 78.7072 43.4685 74.878 43.465C73.0707 43.465 71.2634 43.465 69.4562 43.465H68.6954C68.6954 44.1143 68.6954 44.6746 68.6954 45.2349C68.6954 46.2246 68.536 46.379 67.5035 46.3825C66.424 46.3825 65.3457 46.3825 64.1949 46.3825C64.1949 47.2669 64.1949 48.0776 64.1949 48.8883C64.1949 49.8241 63.986 50.0277 63.0368 50.0288H59.7185V55.1128H60.4877C63.2594 55.1128 66.0311 55.1128 68.8029 55.1128C70.101 55.1128 70.2229 55.2298 70.2229 56.4663V57.305H70.9656C74.6212 57.305 78.2765 57.305 81.9313 57.305C82.7983 57.305 82.9988 57.5004 82.9988 58.331C82.9988 62.4737 82.9988 66.6156 82.9988 70.7567C82.9988 71.7733 82.8672 71.9031 81.8202 71.9043C78.2048 71.9043 74.5894 71.9043 70.974 71.9043H70.2205C70.2205 72.3722 70.2278 72.7629 70.2205 73.149C70.206 73.8509 69.9585 74.0848 69.2303 74.0848C66.3982 74.0848 63.5661 74.0848 60.734 74.0848C60.1158 74.0817 59.5192 73.864 59.0524 73.4712C58.5856 73.0785 58.2795 72.5367 58.1897 71.9441C58.1553 71.5762 58.1456 71.2065 58.1608 70.8374C58.1608 69.7542 58.1608 68.6721 58.1608 67.5701H44.6121V68.2381C44.6121 69.3073 44.6314 70.3777 44.6121 71.4469C44.5807 73.0519 43.4794 74.0872 41.8226 74.0872C38.8497 74.0872 35.8771 74.0872 32.9049 74.0872C31.9992 74.0872 31.7964 73.8953 31.7903 73.0425C31.7903 72.6811 31.7903 72.3208 31.7903 71.9043H30.9861C27.3707 71.9043 23.7553 71.916 20.1411 71.8879C19.7595 71.8879 19.3804 71.6481 19 71.5206V57.7508ZM33.3445 72.6074H41.6572C42.7126 72.6074 43.0942 72.2295 43.0966 71.1884C43.0966 69.808 43.0966 68.4276 43.0966 67.0472C43.0966 66.2635 43.3152 66.0517 44.1387 66.0517C48.977 66.0517 53.816 66.0517 58.6558 66.0517C59.4263 66.0517 59.6581 66.2775 59.6629 67.0285C59.6702 68.4077 59.6629 69.7881 59.669 71.1685C59.669 72.2529 60.0312 72.6038 61.1398 72.6062C63.4687 72.6109 65.7981 72.6109 68.1278 72.6062C68.2981 72.6062 68.4696 72.5793 68.6314 72.5641V56.5821H59.198C58.3697 56.5821 58.1608 56.3867 58.1595 55.5948C58.1595 53.9617 58.1595 52.3287 58.1595 50.6956V50.0639H43.8549V50.7763C43.8549 52.3708 43.8549 53.9652 43.8549 55.5585C43.8549 56.3774 43.634 56.5833 42.779 56.5833H33.3445V72.6074ZM62.6577 48.528V34.5323C62.6577 31.8897 61.0492 30.3315 58.3105 30.3292C53.4296 30.3292 48.5495 30.3292 43.6702 30.3292C40.9774 30.3362 39.3472 31.8909 39.3435 34.4937C39.3371 38.9647 39.3371 43.4365 39.3435 47.9091C39.3435 48.1127 39.3641 48.3174 39.3749 48.528H62.6577ZM20.5589 58.8153C20.5414 58.9097 20.5293 59.005 20.5227 59.1007C20.5227 62.7154 20.5227 66.329 20.5106 69.9425C20.5106 70.3227 20.6314 70.4432 21.0299 70.4409C24.4617 70.4292 27.8924 70.435 31.3242 70.4315C31.468 70.4235 31.6111 70.4075 31.7529 70.3835V58.8153H20.5589ZM81.4386 58.834H70.2543V70.3964H81.4386V58.834ZM76.9876 28.9207V29.584C76.9876 31.8593 76.9937 34.1334 76.9876 36.4087C76.9816 38.016 75.8803 39.0759 74.2308 39.0794C72.6207 39.0794 71.0139 39.0794 69.4103 39.0794H68.7437V41.984H74.7887C77.9017 41.984 79.9811 39.9954 79.9811 36.9878C79.9868 34.5 79.9868 32.0114 79.9811 29.522C79.9811 29.3325 79.963 29.143 79.9509 28.9196L76.9876 28.9207ZM67.1534 44.8723V36.9421H64.2552V44.8723H67.1534Z" fill="#D2D2D2"/>
</g>
<defs>
<clipPath id="clip0_25_99">
<rect width="64" height="46.6766" fill="white" transform="translate(19 27.4117)"/>
</clipPath>
</defs>
</svg>
