<svg width="102" height="102" viewBox="0 0 102 102" fill="none" xmlns="http://www.w3.org/2000/svg">
<rect x="3" y="3.00006" width="96" height="96" rx="48" stroke="#D2D2D2" stroke-width="6"/>
<g clip-path="url(#clip0_25_98)">
<path d="M82 50.1728V51.9301C81.8945 52.9542 81.8126 53.981 81.6817 55.0015C80.924 60.9044 78.6593 66.1751 74.8402 70.7273C69.3909 77.2226 62.4342 80.9138 53.9701 81.8009C53.2907 81.8718 52.6103 81.9337 51.93 82.0001H50.07C49.9407 81.9618 49.8092 81.9314 49.6762 81.9091C48.2064 81.7454 46.7175 81.689 45.2713 81.4089C37.6686 79.9382 31.4374 76.1581 26.6332 70.0852C23.1388 65.6685 21.0423 60.6397 20.3165 55.0507C20.1865 54.0502 20.1046 53.0388 20 52.0328V49.9664C20.0373 49.679 20.0782 49.3925 20.1128 49.1041C20.2674 47.8072 20.3383 46.4938 20.5894 45.2159C22.0674 37.6722 25.821 31.4793 31.8294 26.6942C36.2479 23.1771 41.2885 21.0615 46.893 20.322C47.9144 20.1874 48.9422 20.1065 49.9663 20.0001H52.0328C52.2331 20.042 52.4356 20.0724 52.6394 20.091C56.6414 20.2829 60.4869 21.1697 64.0722 22.9451C74.4409 28.0822 80.3465 36.4065 81.789 47.9181C81.8809 48.6694 81.93 49.4225 82 50.1728ZM40.2443 58.5796V59.1554C40.2443 61.6178 40.2443 64.0796 40.2443 66.5408C40.2344 66.7636 40.259 66.9866 40.3171 67.202C40.6809 68.3116 41.0847 69.4085 41.4295 70.5245C41.6323 71.1812 42.0716 71.5441 42.6728 71.7879C46.5056 73.3413 50.3783 73.3477 54.2893 72.1371C55.4653 71.7733 56.2621 71.1366 56.6477 69.8906C57.1316 68.3271 57.6482 66.8118 57.5655 65.1246C57.4699 63.1318 57.5427 61.1318 57.5427 59.1345V58.5696C57.7756 58.5496 57.9465 58.536 58.1166 58.5196C58.6969 58.4632 59.249 58.3241 59.6055 57.8184C59.7156 57.6637 59.7274 57.4409 59.7874 57.249C59.6155 57.2017 59.4455 57.1189 59.2726 57.1144C58.7115 57.0962 58.1503 57.1071 57.5445 57.1071V56.414C57.5445 49.7508 57.5445 43.0876 57.5445 36.4244C57.5445 34.7945 56.8515 33.5593 55.4281 32.7926C54.7621 32.4364 54.0545 32.1642 53.3216 31.9822C51.2797 31.4765 49.1932 31.5211 47.1095 31.6184C45.6051 31.6894 44.1289 31.9049 42.7546 32.5725C41.0938 33.3793 40.2443 34.6872 40.2471 36.5563C40.2562 43.2019 40.2562 49.8475 40.2471 56.4932V57.1089C39.685 57.1089 39.1902 57.0953 38.6963 57.1153C38.4726 57.1244 38.2516 57.2008 38.0287 57.2472C38.1524 57.5146 38.2106 57.8647 38.4153 58.0312C38.6945 58.2558 39.0801 58.3641 39.4339 58.476C39.6768 58.5496 39.9406 58.5433 40.2443 58.5796ZM69.4321 38.9456L63.7721 48.0564H66.6098V57.0425H67.2156C68.6954 57.0425 70.1752 57.0207 71.6541 57.0516C72.1498 57.0625 72.2962 56.9207 72.2908 56.4204C72.2671 53.8574 72.2789 51.2934 72.2817 48.7303C72.2817 48.5139 72.3044 48.2983 72.3208 48.0173H75.0694L69.4321 38.9456ZM37.0464 70.6018V28.9735C36.8154 28.9735 36.6299 28.9735 36.4434 28.9735C35.4202 28.9917 35.5075 28.8016 35.5075 29.9049C35.5075 43.0627 35.5075 56.2182 35.5075 69.3712C35.5057 70.831 35.5057 70.831 37.0464 70.6018ZM62.2932 49.8118V29.823C62.2932 29.6675 62.2823 29.5119 62.2932 29.3582C62.3168 29.0608 62.1759 28.9535 61.8957 28.9753C61.7584 28.9853 61.6229 28.9753 61.4819 28.9753C60.7052 28.9753 60.7042 28.9753 60.7042 29.753C60.7042 43.117 60.7042 56.4804 60.7042 69.8433C60.7042 70.7801 60.6269 70.6518 61.5446 70.6619C62.2923 70.6673 62.2923 70.6619 62.2923 69.9133L62.2932 49.8118Z" fill="#D2D2D2"/>
<path d="M43.4214 54.5622C47.105 55.51 50.7349 55.5527 54.4267 54.5486C54.6881 55.5745 54.9491 56.6008 55.2098 57.6273C55.3572 58.2104 55.459 58.8097 55.6546 59.3736C55.8083 59.8193 55.6719 60.0876 55.2908 60.2368C54.3658 60.5951 53.4526 61.0217 52.4931 61.2418C49.6795 61.8994 46.74 61.7786 43.9899 60.8926C43.4087 60.7107 42.8666 60.3869 42.3272 60.0904C42.2594 60.0388 42.2054 59.9713 42.1698 59.8939C42.1343 59.8165 42.1184 59.7315 42.1235 59.6465C42.5173 57.9921 42.9375 56.344 43.3541 54.6941C43.3709 54.6475 43.3935 54.6032 43.4214 54.5622Z" fill="#D2D2D2"/>
<path d="M43.2185 34.1651C47.0185 32.7371 50.754 32.7499 54.5876 34.1533C54.2611 34.8418 53.9837 35.4621 53.6663 36.0633C53.6163 36.1542 53.3825 36.2024 53.237 36.1952C51.5089 36.1042 49.7808 35.9514 48.0463 35.9296C46.9358 35.915 45.8207 36.0778 44.712 36.1924C44.3618 36.2288 44.138 36.1924 43.9907 35.8286C43.7779 35.2865 43.505 34.7708 43.2185 34.1651Z" fill="#D2D2D2"/>
<path d="M56.8744 47.9481C56.3105 47.7853 55.7629 47.6462 55.2318 47.4606C55.1639 47.4235 55.1059 47.3706 55.0626 47.3066C55.0193 47.2425 54.9918 47.1691 54.9825 47.0923C54.9325 44.7193 54.8916 42.3454 54.8716 39.9716C54.8716 39.2867 55.1845 39.1393 55.7484 39.5313C56.085 39.7697 56.4067 40.0285 56.7116 40.3063C56.803 40.4027 56.855 40.5299 56.8571 40.6628C56.8917 43.0367 56.9192 45.4102 56.9399 47.7835C56.9408 47.8144 56.9162 47.8463 56.8744 47.9481Z" fill="#D2D2D2"/>
<path d="M40.9355 47.95C40.9355 45.5506 40.9274 43.2322 40.941 40.9138C40.941 40.4027 41.9833 39.3676 42.4927 39.3467C42.6227 39.3422 42.7864 39.4695 42.8819 39.5814C42.9465 39.6578 42.9347 39.8115 42.9329 39.9306C42.8983 42.3181 42.8647 44.7066 42.8137 47.0941C42.8137 47.2214 42.6864 47.4197 42.5745 47.4579C42.0424 47.6444 41.4958 47.7862 40.9355 47.95Z" fill="#D2D2D2"/>
<path d="M40.9029 58.1631V51.5608C40.9029 51.458 40.9029 51.3543 40.9029 51.2516C40.9211 50.7759 40.7565 50.0928 41.0039 49.8709C41.4141 49.5025 42.0899 49.4307 42.7366 49.2051C42.692 49.9327 42.6793 50.5639 42.6092 51.1915C42.4109 52.9506 42.2054 54.7096 41.9662 56.4668C41.9061 56.9025 41.7306 57.3281 41.5623 57.7401C41.4823 57.9366 41.2959 58.0894 41.1576 58.2622L40.9029 58.1631Z" fill="#D2D2D2"/>
<path d="M56.6797 58.3641C56.4586 58.0066 56.2158 57.7683 56.1558 57.49C55.8711 56.1666 55.5782 54.8396 55.3999 53.499C55.2235 52.172 55.1807 50.8277 55.0825 49.4898C55.0878 49.3978 55.1012 49.3065 55.1225 49.2169C55.681 49.4079 56.214 49.5807 56.7351 49.7817C56.8261 49.8163 56.9025 49.9973 56.9016 50.1092C56.8725 52.7577 56.8358 55.4063 56.7915 58.0548C56.7906 58.1021 56.7606 58.1467 56.6797 58.3641Z" fill="#D2D2D2"/>
<path d="M56.5368 68.7209C56.5559 70.2735 54.836 71.6314 53.5099 71.2112C53.4189 71.1812 53.3062 70.8556 53.3616 70.7564C53.5093 70.4867 53.7112 70.2504 53.9547 70.0625C54.5072 69.6617 55.0807 69.2906 55.6728 68.951C55.9074 68.8182 56.2103 68.8037 56.5368 68.7209Z" fill="#D2D2D2"/>
<path d="M43.8071 71.2376C42.5984 71.2312 41.5178 70.3281 41.2605 69.1457C41.1886 68.8164 41.3187 68.6973 41.5979 68.7819C42.7657 69.1257 43.7526 69.7523 44.4638 70.7583C44.6457 71.0148 44.5739 71.2194 44.2192 71.2367C44.0827 71.2431 43.9445 71.2376 43.8071 71.2376Z" fill="#D2D2D2"/>
</g>
<defs>
<clipPath id="clip0_25_98">
<rect width="62" height="62" fill="white" transform="translate(20 20.0001)"/>
</clipPath>
</defs>
</svg>
