<svg viewBox="0 0 24 24" xmlns="http://www.w3.org/2000/svg">
  <path d="M12 2C13.1 2 14 2.9 14 4C14 5.1 13.1 6 12 6C10.9 6 10 5.1 10 4C10 2.9 10.9 2 12 2M21 9V7L19 5C18.39 4.39 17.61 4.39 17 5C16.39 5.61 16.39 6.39 17 7L19 9H17V11C17 11.55 17.45 12 18 12S19 11.55 19 12V9H21M12 7C14.76 7 17 9.24 17 12S14.76 17 12 17S7 14.76 7 12S9.24 7 12 7M12 8.5C10.07 8.5 8.5 10.07 8.5 12S10.07 15.5 12 15.5S15.5 13.93 15.5 12S13.93 8.5 12 8.5M7 5C6.39 4.39 5.61 4.39 5 5C4.39 5.61 4.39 6.39 5 7L7 9H5V12C5 11.55 5.45 11 6 11S7 11.55 7 11V9L5 7C5.61 6.39 5.61 5.61 5 5C5.61 4.39 6.39 4.39 7 5Z"/>
</svg>