<svg width="38" height="38" viewBox="0 0 38 38" fill="none" xmlns="http://www.w3.org/2000/svg">
<g id="Union">
<path d="M22.5911 37.6207C21.8522 37.6207 21.2241 37.3621 20.7069 36.8449C20.1896 36.3276 19.931 35.6995 19.931 34.9606V22.5469C19.931 21.8079 20.1896 21.1799 20.7069 20.6626C21.2241 20.1454 21.8522 19.8868 22.5911 19.8868H35.0049C35.7438 19.8868 36.3719 20.1454 36.8891 20.6626C37.4063 21.1799 37.665 21.8079 37.665 22.5469V34.9606C37.665 35.6995 37.4063 36.3276 36.8891 36.8449C36.3719 37.3621 35.7438 37.6207 35.0049 37.6207H22.5911ZM13.2808 35.8473L12.5714 30.1725C12.1872 30.0247 11.8251 29.8473 11.4852 29.6404C11.1453 29.4335 10.8128 29.2119 10.4877 28.9754L5.2118 31.1922L0.334961 22.7685L4.90146 19.3104C4.8719 19.1035 4.85712 18.904 4.85712 18.7119V17.5148C4.85712 17.3227 4.8719 17.1232 4.90146 16.9163L0.334961 13.4582L5.2118 5.03456L10.4877 7.25131C10.8128 7.01485 11.1527 6.79318 11.5074 6.58628C11.862 6.37939 12.2167 6.20205 12.5714 6.05426L13.2808 0.379395H23.0344L23.7438 6.05426C24.128 6.20205 24.4901 6.37939 24.83 6.58628C25.1699 6.79318 25.5024 7.01485 25.8275 7.25131L31.1034 5.03456L35.9802 13.4582L32.2118 16.34H24.1871C23.7734 15.069 23.0344 14.0124 21.9704 13.17C20.9064 12.3277 19.665 11.9065 18.2463 11.9065C16.532 11.9065 15.0689 12.5124 13.8571 13.7242C12.6453 14.936 12.0394 16.3991 12.0394 18.1134C12.0394 19.5321 12.4384 20.7735 13.2364 21.8375C14.0345 22.9015 15.0837 23.6404 16.3842 24.0542V35.8473H13.2808ZM23.4778 34.0739H34.1182V32.6109C33.3793 31.9311 32.5517 31.4138 31.6354 31.0592C30.7192 30.7045 29.7733 30.5271 28.798 30.5271C27.8226 30.5271 26.8768 30.7045 25.9605 31.0592C25.0443 31.4138 24.2167 31.9311 23.4778 32.6109V34.0739ZM28.798 28.7537C29.5369 28.7537 30.165 28.4951 30.6822 27.9779C31.1995 27.4606 31.4581 26.8326 31.4581 26.0936C31.4581 25.3547 31.1995 24.7267 30.6822 24.2094C30.165 23.6922 29.5369 23.4335 28.798 23.4335C28.0591 23.4335 27.431 23.6922 26.9137 24.2094C26.3965 24.7267 26.1379 25.3547 26.1379 26.0936C26.1379 26.8326 26.3965 27.4606 26.9137 27.9779C27.431 28.4951 28.0591 28.7537 28.798 28.7537Z" fill="black"/>
<path d="M22.5911 37.6207C21.8522 37.6207 21.2241 37.3621 20.7069 36.8449C20.1896 36.3276 19.931 35.6995 19.931 34.9606V22.5469C19.931 21.8079 20.1896 21.1799 20.7069 20.6626C21.2241 20.1454 21.8522 19.8868 22.5911 19.8868H35.0049C35.7438 19.8868 36.3719 20.1454 36.8891 20.6626C37.4063 21.1799 37.665 21.8079 37.665 22.5469V34.9606C37.665 35.6995 37.4063 36.3276 36.8891 36.8449C36.3719 37.3621 35.7438 37.6207 35.0049 37.6207H22.5911ZM13.2808 35.8473L12.5714 30.1725C12.1872 30.0247 11.8251 29.8473 11.4852 29.6404C11.1453 29.4335 10.8128 29.2119 10.4877 28.9754L5.2118 31.1922L0.334961 22.7685L4.90146 19.3104C4.8719 19.1035 4.85712 18.904 4.85712 18.7119V17.5148C4.85712 17.3227 4.8719 17.1232 4.90146 16.9163L0.334961 13.4582L5.2118 5.03456L10.4877 7.25131C10.8128 7.01485 11.1527 6.79318 11.5074 6.58628C11.862 6.37939 12.2167 6.20205 12.5714 6.05426L13.2808 0.379395H23.0344L23.7438 6.05426C24.128 6.20205 24.4901 6.37939 24.83 6.58628C25.1699 6.79318 25.5024 7.01485 25.8275 7.25131L31.1034 5.03456L35.9802 13.4582L32.2118 16.34H24.1871C23.7734 15.069 23.0344 14.0124 21.9704 13.17C20.9064 12.3277 19.665 11.9065 18.2463 11.9065C16.532 11.9065 15.0689 12.5124 13.8571 13.7242C12.6453 14.936 12.0394 16.3991 12.0394 18.1134C12.0394 19.5321 12.4384 20.7735 13.2364 21.8375C14.0345 22.9015 15.0837 23.6404 16.3842 24.0542V35.8473H13.2808ZM23.4778 34.0739H34.1182V32.6109C33.3793 31.9311 32.5517 31.4138 31.6354 31.0592C30.7192 30.7045 29.7733 30.5271 28.798 30.5271C27.8226 30.5271 26.8768 30.7045 25.9605 31.0592C25.0443 31.4138 24.2167 31.9311 23.4778 32.6109V34.0739ZM28.798 28.7537C29.5369 28.7537 30.165 28.4951 30.6822 27.9779C31.1995 27.4606 31.4581 26.8326 31.4581 26.0936C31.4581 25.3547 31.1995 24.7267 30.6822 24.2094C30.165 23.6922 29.5369 23.4335 28.798 23.4335C28.0591 23.4335 27.431 23.6922 26.9137 24.2094C26.3965 24.7267 26.1379 25.3547 26.1379 26.0936C26.1379 26.8326 26.3965 27.4606 26.9137 27.9779C27.431 28.4951 28.0591 28.7537 28.798 28.7537Z" fill="black" fill-opacity="0.2"/>
<path d="M22.5911 37.6207C21.8522 37.6207 21.2241 37.3621 20.7069 36.8449C20.1896 36.3276 19.931 35.6995 19.931 34.9606V22.5469C19.931 21.8079 20.1896 21.1799 20.7069 20.6626C21.2241 20.1454 21.8522 19.8868 22.5911 19.8868H35.0049C35.7438 19.8868 36.3719 20.1454 36.8891 20.6626C37.4063 21.1799 37.665 21.8079 37.665 22.5469V34.9606C37.665 35.6995 37.4063 36.3276 36.8891 36.8449C36.3719 37.3621 35.7438 37.6207 35.0049 37.6207H22.5911ZM13.2808 35.8473L12.5714 30.1725C12.1872 30.0247 11.8251 29.8473 11.4852 29.6404C11.1453 29.4335 10.8128 29.2119 10.4877 28.9754L5.2118 31.1922L0.334961 22.7685L4.90146 19.3104C4.8719 19.1035 4.85712 18.904 4.85712 18.7119V17.5148C4.85712 17.3227 4.8719 17.1232 4.90146 16.9163L0.334961 13.4582L5.2118 5.03456L10.4877 7.25131C10.8128 7.01485 11.1527 6.79318 11.5074 6.58628C11.862 6.37939 12.2167 6.20205 12.5714 6.05426L13.2808 0.379395H23.0344L23.7438 6.05426C24.128 6.20205 24.4901 6.37939 24.83 6.58628C25.1699 6.79318 25.5024 7.01485 25.8275 7.25131L31.1034 5.03456L35.9802 13.4582L32.2118 16.34H24.1871C23.7734 15.069 23.0344 14.0124 21.9704 13.17C20.9064 12.3277 19.665 11.9065 18.2463 11.9065C16.532 11.9065 15.0689 12.5124 13.8571 13.7242C12.6453 14.936 12.0394 16.3991 12.0394 18.1134C12.0394 19.5321 12.4384 20.7735 13.2364 21.8375C14.0345 22.9015 15.0837 23.6404 16.3842 24.0542V35.8473H13.2808ZM23.4778 34.0739H34.1182V32.6109C33.3793 31.9311 32.5517 31.4138 31.6354 31.0592C30.7192 30.7045 29.7733 30.5271 28.798 30.5271C27.8226 30.5271 26.8768 30.7045 25.9605 31.0592C25.0443 31.4138 24.2167 31.9311 23.4778 32.6109V34.0739ZM28.798 28.7537C29.5369 28.7537 30.165 28.4951 30.6822 27.9779C31.1995 27.4606 31.4581 26.8326 31.4581 26.0936C31.4581 25.3547 31.1995 24.7267 30.6822 24.2094C30.165 23.6922 29.5369 23.4335 28.798 23.4335C28.0591 23.4335 27.431 23.6922 26.9137 24.2094C26.3965 24.7267 26.1379 25.3547 26.1379 26.0936C26.1379 26.8326 26.3965 27.4606 26.9137 27.9779C27.431 28.4951 28.0591 28.7537 28.798 28.7537Z" fill="black" fill-opacity="0.2"/>
<path d="M22.5911 37.6207C21.8522 37.6207 21.2241 37.3621 20.7069 36.8449C20.1896 36.3276 19.931 35.6995 19.931 34.9606V22.5469C19.931 21.8079 20.1896 21.1799 20.7069 20.6626C21.2241 20.1454 21.8522 19.8868 22.5911 19.8868H35.0049C35.7438 19.8868 36.3719 20.1454 36.8891 20.6626C37.4063 21.1799 37.665 21.8079 37.665 22.5469V34.9606C37.665 35.6995 37.4063 36.3276 36.8891 36.8449C36.3719 37.3621 35.7438 37.6207 35.0049 37.6207H22.5911ZM13.2808 35.8473L12.5714 30.1725C12.1872 30.0247 11.8251 29.8473 11.4852 29.6404C11.1453 29.4335 10.8128 29.2119 10.4877 28.9754L5.2118 31.1922L0.334961 22.7685L4.90146 19.3104C4.8719 19.1035 4.85712 18.904 4.85712 18.7119V17.5148C4.85712 17.3227 4.8719 17.1232 4.90146 16.9163L0.334961 13.4582L5.2118 5.03456L10.4877 7.25131C10.8128 7.01485 11.1527 6.79318 11.5074 6.58628C11.862 6.37939 12.2167 6.20205 12.5714 6.05426L13.2808 0.379395H23.0344L23.7438 6.05426C24.128 6.20205 24.4901 6.37939 24.83 6.58628C25.1699 6.79318 25.5024 7.01485 25.8275 7.25131L31.1034 5.03456L35.9802 13.4582L32.2118 16.34H24.1871C23.7734 15.069 23.0344 14.0124 21.9704 13.17C20.9064 12.3277 19.665 11.9065 18.2463 11.9065C16.532 11.9065 15.0689 12.5124 13.8571 13.7242C12.6453 14.936 12.0394 16.3991 12.0394 18.1134C12.0394 19.5321 12.4384 20.7735 13.2364 21.8375C14.0345 22.9015 15.0837 23.6404 16.3842 24.0542V35.8473H13.2808ZM23.4778 34.0739H34.1182V32.6109C33.3793 31.9311 32.5517 31.4138 31.6354 31.0592C30.7192 30.7045 29.7733 30.5271 28.798 30.5271C27.8226 30.5271 26.8768 30.7045 25.9605 31.0592C25.0443 31.4138 24.2167 31.9311 23.4778 32.6109V34.0739ZM28.798 28.7537C29.5369 28.7537 30.165 28.4951 30.6822 27.9779C31.1995 27.4606 31.4581 26.8326 31.4581 26.0936C31.4581 25.3547 31.1995 24.7267 30.6822 24.2094C30.165 23.6922 29.5369 23.4335 28.798 23.4335C28.0591 23.4335 27.431 23.6922 26.9137 24.2094C26.3965 24.7267 26.1379 25.3547 26.1379 26.0936C26.1379 26.8326 26.3965 27.4606 26.9137 27.9779C27.431 28.4951 28.0591 28.7537 28.798 28.7537Z" fill="black" fill-opacity="0.2"/>
<path d="M22.5911 37.6207C21.8522 37.6207 21.2241 37.3621 20.7069 36.8449C20.1896 36.3276 19.931 35.6995 19.931 34.9606V22.5469C19.931 21.8079 20.1896 21.1799 20.7069 20.6626C21.2241 20.1454 21.8522 19.8868 22.5911 19.8868H35.0049C35.7438 19.8868 36.3719 20.1454 36.8891 20.6626C37.4063 21.1799 37.665 21.8079 37.665 22.5469V34.9606C37.665 35.6995 37.4063 36.3276 36.8891 36.8449C36.3719 37.3621 35.7438 37.6207 35.0049 37.6207H22.5911ZM13.2808 35.8473L12.5714 30.1725C12.1872 30.0247 11.8251 29.8473 11.4852 29.6404C11.1453 29.4335 10.8128 29.2119 10.4877 28.9754L5.2118 31.1922L0.334961 22.7685L4.90146 19.3104C4.8719 19.1035 4.85712 18.904 4.85712 18.7119V17.5148C4.85712 17.3227 4.8719 17.1232 4.90146 16.9163L0.334961 13.4582L5.2118 5.03456L10.4877 7.25131C10.8128 7.01485 11.1527 6.79318 11.5074 6.58628C11.862 6.37939 12.2167 6.20205 12.5714 6.05426L13.2808 0.379395H23.0344L23.7438 6.05426C24.128 6.20205 24.4901 6.37939 24.83 6.58628C25.1699 6.79318 25.5024 7.01485 25.8275 7.25131L31.1034 5.03456L35.9802 13.4582L32.2118 16.34H24.1871C23.7734 15.069 23.0344 14.0124 21.9704 13.17C20.9064 12.3277 19.665 11.9065 18.2463 11.9065C16.532 11.9065 15.0689 12.5124 13.8571 13.7242C12.6453 14.936 12.0394 16.3991 12.0394 18.1134C12.0394 19.5321 12.4384 20.7735 13.2364 21.8375C14.0345 22.9015 15.0837 23.6404 16.3842 24.0542V35.8473H13.2808ZM23.4778 34.0739H34.1182V32.6109C33.3793 31.9311 32.5517 31.4138 31.6354 31.0592C30.7192 30.7045 29.7733 30.5271 28.798 30.5271C27.8226 30.5271 26.8768 30.7045 25.9605 31.0592C25.0443 31.4138 24.2167 31.9311 23.4778 32.6109V34.0739ZM28.798 28.7537C29.5369 28.7537 30.165 28.4951 30.6822 27.9779C31.1995 27.4606 31.4581 26.8326 31.4581 26.0936C31.4581 25.3547 31.1995 24.7267 30.6822 24.2094C30.165 23.6922 29.5369 23.4335 28.798 23.4335C28.0591 23.4335 27.431 23.6922 26.9137 24.2094C26.3965 24.7267 26.1379 25.3547 26.1379 26.0936C26.1379 26.8326 26.3965 27.4606 26.9137 27.9779C27.431 28.4951 28.0591 28.7537 28.798 28.7537Z" fill="black" fill-opacity="0.2"/>
</g>
</svg>
