<svg width="32" height="32" viewBox="0 0 32 32" fill="none" xmlns="http://www.w3.org/2000/svg">
<g id="Union">
<path d="M11.8 31.2222L11.1778 26.2444C10.8408 26.1148 10.5232 25.9592 10.225 25.7778C9.92687 25.5963 9.6352 25.4018 9.35001 25.1944L4.72224 27.1389L0.444458 19.75L4.45001 16.7166C4.42409 16.5352 4.41112 16.3602 4.41112 16.1916V15.1416C4.41112 14.9731 4.42409 14.7981 4.45001 14.6166L0.444458 11.5833L4.72224 4.19442L9.35001 6.13886C9.6352 5.93145 9.93335 5.73701 10.2445 5.55553C10.5556 5.37405 10.8667 5.21849 11.1778 5.08886L11.8 0.111084H20.3556L20.9778 5.08886C21.3148 5.21849 21.6324 5.37405 21.9306 5.55553C22.2287 5.73701 22.5204 5.93145 22.8056 6.13886L27.4333 4.19442L31.7111 11.5833L27.7056 14.6166C27.7315 14.7981 27.7445 14.9731 27.7445 15.1416V16.1916C27.7445 16.3602 27.7185 16.5352 27.6667 16.7166L31.6722 19.75L27.3945 27.1389L22.8056 25.1944C22.5204 25.4018 22.2222 25.5963 21.9111 25.7778C21.6 25.9592 21.2889 26.1148 20.9778 26.2444L20.3556 31.2222H11.8ZM16.1556 21.1111C17.6593 21.1111 18.9426 20.5796 20.0056 19.5166C21.0685 18.4537 21.6 17.1703 21.6 15.6666C21.6 14.1629 21.0685 12.8796 20.0056 11.8166C18.9426 10.7537 17.6593 10.2222 16.1556 10.2222C14.6259 10.2222 13.3361 10.7537 12.2861 11.8166C11.2361 12.8796 10.7111 14.1629 10.7111 15.6666C10.7111 17.1703 11.2361 18.4537 12.2861 19.5166C13.3361 20.5796 14.6259 21.1111 16.1556 21.1111Z" fill="black"/>
<path d="M11.8 31.2222L11.1778 26.2444C10.8408 26.1148 10.5232 25.9592 10.225 25.7778C9.92687 25.5963 9.6352 25.4018 9.35001 25.1944L4.72224 27.1389L0.444458 19.75L4.45001 16.7166C4.42409 16.5352 4.41112 16.3602 4.41112 16.1916V15.1416C4.41112 14.9731 4.42409 14.7981 4.45001 14.6166L0.444458 11.5833L4.72224 4.19442L9.35001 6.13886C9.6352 5.93145 9.93335 5.73701 10.2445 5.55553C10.5556 5.37405 10.8667 5.21849 11.1778 5.08886L11.8 0.111084H20.3556L20.9778 5.08886C21.3148 5.21849 21.6324 5.37405 21.9306 5.55553C22.2287 5.73701 22.5204 5.93145 22.8056 6.13886L27.4333 4.19442L31.7111 11.5833L27.7056 14.6166C27.7315 14.7981 27.7445 14.9731 27.7445 15.1416V16.1916C27.7445 16.3602 27.7185 16.5352 27.6667 16.7166L31.6722 19.75L27.3945 27.1389L22.8056 25.1944C22.5204 25.4018 22.2222 25.5963 21.9111 25.7778C21.6 25.9592 21.2889 26.1148 20.9778 26.2444L20.3556 31.2222H11.8ZM16.1556 21.1111C17.6593 21.1111 18.9426 20.5796 20.0056 19.5166C21.0685 18.4537 21.6 17.1703 21.6 15.6666C21.6 14.1629 21.0685 12.8796 20.0056 11.8166C18.9426 10.7537 17.6593 10.2222 16.1556 10.2222C14.6259 10.2222 13.3361 10.7537 12.2861 11.8166C11.2361 12.8796 10.7111 14.1629 10.7111 15.6666C10.7111 17.1703 11.2361 18.4537 12.2861 19.5166C13.3361 20.5796 14.6259 21.1111 16.1556 21.1111Z" fill="black" fill-opacity="0.2"/>
<path d="M11.8 31.2222L11.1778 26.2444C10.8408 26.1148 10.5232 25.9592 10.225 25.7778C9.92687 25.5963 9.6352 25.4018 9.35001 25.1944L4.72224 27.1389L0.444458 19.75L4.45001 16.7166C4.42409 16.5352 4.41112 16.3602 4.41112 16.1916V15.1416C4.41112 14.9731 4.42409 14.7981 4.45001 14.6166L0.444458 11.5833L4.72224 4.19442L9.35001 6.13886C9.6352 5.93145 9.93335 5.73701 10.2445 5.55553C10.5556 5.37405 10.8667 5.21849 11.1778 5.08886L11.8 0.111084H20.3556L20.9778 5.08886C21.3148 5.21849 21.6324 5.37405 21.9306 5.55553C22.2287 5.73701 22.5204 5.93145 22.8056 6.13886L27.4333 4.19442L31.7111 11.5833L27.7056 14.6166C27.7315 14.7981 27.7445 14.9731 27.7445 15.1416V16.1916C27.7445 16.3602 27.7185 16.5352 27.6667 16.7166L31.6722 19.75L27.3945 27.1389L22.8056 25.1944C22.5204 25.4018 22.2222 25.5963 21.9111 25.7778C21.6 25.9592 21.2889 26.1148 20.9778 26.2444L20.3556 31.2222H11.8ZM16.1556 21.1111C17.6593 21.1111 18.9426 20.5796 20.0056 19.5166C21.0685 18.4537 21.6 17.1703 21.6 15.6666C21.6 14.1629 21.0685 12.8796 20.0056 11.8166C18.9426 10.7537 17.6593 10.2222 16.1556 10.2222C14.6259 10.2222 13.3361 10.7537 12.2861 11.8166C11.2361 12.8796 10.7111 14.1629 10.7111 15.6666C10.7111 17.1703 11.2361 18.4537 12.2861 19.5166C13.3361 20.5796 14.6259 21.1111 16.1556 21.1111Z" fill="black" fill-opacity="0.2"/>
<path d="M11.8 31.2222L11.1778 26.2444C10.8408 26.1148 10.5232 25.9592 10.225 25.7778C9.92687 25.5963 9.6352 25.4018 9.35001 25.1944L4.72224 27.1389L0.444458 19.75L4.45001 16.7166C4.42409 16.5352 4.41112 16.3602 4.41112 16.1916V15.1416C4.41112 14.9731 4.42409 14.7981 4.45001 14.6166L0.444458 11.5833L4.72224 4.19442L9.35001 6.13886C9.6352 5.93145 9.93335 5.73701 10.2445 5.55553C10.5556 5.37405 10.8667 5.21849 11.1778 5.08886L11.8 0.111084H20.3556L20.9778 5.08886C21.3148 5.21849 21.6324 5.37405 21.9306 5.55553C22.2287 5.73701 22.5204 5.93145 22.8056 6.13886L27.4333 4.19442L31.7111 11.5833L27.7056 14.6166C27.7315 14.7981 27.7445 14.9731 27.7445 15.1416V16.1916C27.7445 16.3602 27.7185 16.5352 27.6667 16.7166L31.6722 19.75L27.3945 27.1389L22.8056 25.1944C22.5204 25.4018 22.2222 25.5963 21.9111 25.7778C21.6 25.9592 21.2889 26.1148 20.9778 26.2444L20.3556 31.2222H11.8ZM16.1556 21.1111C17.6593 21.1111 18.9426 20.5796 20.0056 19.5166C21.0685 18.4537 21.6 17.1703 21.6 15.6666C21.6 14.1629 21.0685 12.8796 20.0056 11.8166C18.9426 10.7537 17.6593 10.2222 16.1556 10.2222C14.6259 10.2222 13.3361 10.7537 12.2861 11.8166C11.2361 12.8796 10.7111 14.1629 10.7111 15.6666C10.7111 17.1703 11.2361 18.4537 12.2861 19.5166C13.3361 20.5796 14.6259 21.1111 16.1556 21.1111Z" fill="black" fill-opacity="0.2"/>
<path d="M11.8 31.2222L11.1778 26.2444C10.8408 26.1148 10.5232 25.9592 10.225 25.7778C9.92687 25.5963 9.6352 25.4018 9.35001 25.1944L4.72224 27.1389L0.444458 19.75L4.45001 16.7166C4.42409 16.5352 4.41112 16.3602 4.41112 16.1916V15.1416C4.41112 14.9731 4.42409 14.7981 4.45001 14.6166L0.444458 11.5833L4.72224 4.19442L9.35001 6.13886C9.6352 5.93145 9.93335 5.73701 10.2445 5.55553C10.5556 5.37405 10.8667 5.21849 11.1778 5.08886L11.8 0.111084H20.3556L20.9778 5.08886C21.3148 5.21849 21.6324 5.37405 21.9306 5.55553C22.2287 5.73701 22.5204 5.93145 22.8056 6.13886L27.4333 4.19442L31.7111 11.5833L27.7056 14.6166C27.7315 14.7981 27.7445 14.9731 27.7445 15.1416V16.1916C27.7445 16.3602 27.7185 16.5352 27.6667 16.7166L31.6722 19.75L27.3945 27.1389L22.8056 25.1944C22.5204 25.4018 22.2222 25.5963 21.9111 25.7778C21.6 25.9592 21.2889 26.1148 20.9778 26.2444L20.3556 31.2222H11.8ZM16.1556 21.1111C17.6593 21.1111 18.9426 20.5796 20.0056 19.5166C21.0685 18.4537 21.6 17.1703 21.6 15.6666C21.6 14.1629 21.0685 12.8796 20.0056 11.8166C18.9426 10.7537 17.6593 10.2222 16.1556 10.2222C14.6259 10.2222 13.3361 10.7537 12.2861 11.8166C11.2361 12.8796 10.7111 14.1629 10.7111 15.6666C10.7111 17.1703 11.2361 18.4537 12.2861 19.5166C13.3361 20.5796 14.6259 21.1111 16.1556 21.1111Z" fill="black" fill-opacity="0.2"/>
</g>
</svg>
