<svg width="69" height="113" viewBox="0 0 69 113" fill="none" xmlns="http://www.w3.org/2000/svg">
<g id="bluetooth">
<path d="M33.9 108.344V67.5444L7.95005 93.4944C7.05005 94.3944 6.00005 94.8444 4.80005 94.8444C3.60005 94.8444 2.55005 94.3944 1.65005 93.4944C0.750049 92.5944 0.300049 91.5444 0.300049 90.3444C0.300049 89.1444 0.750049 88.0944 1.65005 87.1944L32.1 56.7444L1.65005 26.2944C0.750049 25.3944 0.300049 24.3444 0.300049 23.1444C0.300049 21.9444 0.750049 20.8944 1.65005 19.9944C2.55005 19.0944 3.60005 18.6444 4.80005 18.6444C6.00005 18.6444 7.05005 19.0944 7.95005 19.9944L33.9 45.9444V5.14441C33.9 3.74441 34.375 2.64441 35.325 1.84441C36.275 1.04441 37.3 0.644409 38.4 0.644409C38.9 0.644409 39.425 0.744409 39.975 0.944409C40.525 1.14441 41.05 1.49441 41.55 1.99441L67.35 27.7944C67.85 28.2944 68.2001 28.7944 68.4001 29.2944C68.6001 29.7944 68.7001 30.3444 68.7001 30.9444C68.7001 31.5444 68.6001 32.0944 68.4001 32.5944C68.2001 33.0944 67.85 33.5944 67.35 34.0944L44.7 56.7444L67.35 79.3944C67.85 79.8944 68.2001 80.3944 68.4001 80.8944C68.6001 81.3944 68.7001 81.9444 68.7001 82.5444C68.7001 83.1444 68.6001 83.6944 68.4001 84.1944C68.2001 84.6944 67.85 85.1944 67.35 85.6944L41.55 111.494C41.05 111.994 40.525 112.344 39.975 112.544C39.425 112.744 38.9 112.844 38.4 112.844C37.3 112.844 36.275 112.444 35.325 111.644C34.375 110.844 33.9 109.744 33.9 108.344ZM42.9 45.9444L57.9001 30.9444L42.9 16.2444V45.9444ZM42.9 97.2444L57.9001 82.5444L42.9 67.5444V97.2444Z" fill="black"/>
<path d="M33.9 108.344V67.5444L7.95005 93.4944C7.05005 94.3944 6.00005 94.8444 4.80005 94.8444C3.60005 94.8444 2.55005 94.3944 1.65005 93.4944C0.750049 92.5944 0.300049 91.5444 0.300049 90.3444C0.300049 89.1444 0.750049 88.0944 1.65005 87.1944L32.1 56.7444L1.65005 26.2944C0.750049 25.3944 0.300049 24.3444 0.300049 23.1444C0.300049 21.9444 0.750049 20.8944 1.65005 19.9944C2.55005 19.0944 3.60005 18.6444 4.80005 18.6444C6.00005 18.6444 7.05005 19.0944 7.95005 19.9944L33.9 45.9444V5.14441C33.9 3.74441 34.375 2.64441 35.325 1.84441C36.275 1.04441 37.3 0.644409 38.4 0.644409C38.9 0.644409 39.425 0.744409 39.975 0.944409C40.525 1.14441 41.05 1.49441 41.55 1.99441L67.35 27.7944C67.85 28.2944 68.2001 28.7944 68.4001 29.2944C68.6001 29.7944 68.7001 30.3444 68.7001 30.9444C68.7001 31.5444 68.6001 32.0944 68.4001 32.5944C68.2001 33.0944 67.85 33.5944 67.35 34.0944L44.7 56.7444L67.35 79.3944C67.85 79.8944 68.2001 80.3944 68.4001 80.8944C68.6001 81.3944 68.7001 81.9444 68.7001 82.5444C68.7001 83.1444 68.6001 83.6944 68.4001 84.1944C68.2001 84.6944 67.85 85.1944 67.35 85.6944L41.55 111.494C41.05 111.994 40.525 112.344 39.975 112.544C39.425 112.744 38.9 112.844 38.4 112.844C37.3 112.844 36.275 112.444 35.325 111.644C34.375 110.844 33.9 109.744 33.9 108.344ZM42.9 45.9444L57.9001 30.9444L42.9 16.2444V45.9444ZM42.9 97.2444L57.9001 82.5444L42.9 67.5444V97.2444Z" fill="black" fill-opacity="0.2"/>
<path d="M33.9 108.344V67.5444L7.95005 93.4944C7.05005 94.3944 6.00005 94.8444 4.80005 94.8444C3.60005 94.8444 2.55005 94.3944 1.65005 93.4944C0.750049 92.5944 0.300049 91.5444 0.300049 90.3444C0.300049 89.1444 0.750049 88.0944 1.65005 87.1944L32.1 56.7444L1.65005 26.2944C0.750049 25.3944 0.300049 24.3444 0.300049 23.1444C0.300049 21.9444 0.750049 20.8944 1.65005 19.9944C2.55005 19.0944 3.60005 18.6444 4.80005 18.6444C6.00005 18.6444 7.05005 19.0944 7.95005 19.9944L33.9 45.9444V5.14441C33.9 3.74441 34.375 2.64441 35.325 1.84441C36.275 1.04441 37.3 0.644409 38.4 0.644409C38.9 0.644409 39.425 0.744409 39.975 0.944409C40.525 1.14441 41.05 1.49441 41.55 1.99441L67.35 27.7944C67.85 28.2944 68.2001 28.7944 68.4001 29.2944C68.6001 29.7944 68.7001 30.3444 68.7001 30.9444C68.7001 31.5444 68.6001 32.0944 68.4001 32.5944C68.2001 33.0944 67.85 33.5944 67.35 34.0944L44.7 56.7444L67.35 79.3944C67.85 79.8944 68.2001 80.3944 68.4001 80.8944C68.6001 81.3944 68.7001 81.9444 68.7001 82.5444C68.7001 83.1444 68.6001 83.6944 68.4001 84.1944C68.2001 84.6944 67.85 85.1944 67.35 85.6944L41.55 111.494C41.05 111.994 40.525 112.344 39.975 112.544C39.425 112.744 38.9 112.844 38.4 112.844C37.3 112.844 36.275 112.444 35.325 111.644C34.375 110.844 33.9 109.744 33.9 108.344ZM42.9 45.9444L57.9001 30.9444L42.9 16.2444V45.9444ZM42.9 97.2444L57.9001 82.5444L42.9 67.5444V97.2444Z" fill="black" fill-opacity="0.2"/>
<path d="M33.9 108.344V67.5444L7.95005 93.4944C7.05005 94.3944 6.00005 94.8444 4.80005 94.8444C3.60005 94.8444 2.55005 94.3944 1.65005 93.4944C0.750049 92.5944 0.300049 91.5444 0.300049 90.3444C0.300049 89.1444 0.750049 88.0944 1.65005 87.1944L32.1 56.7444L1.65005 26.2944C0.750049 25.3944 0.300049 24.3444 0.300049 23.1444C0.300049 21.9444 0.750049 20.8944 1.65005 19.9944C2.55005 19.0944 3.60005 18.6444 4.80005 18.6444C6.00005 18.6444 7.05005 19.0944 7.95005 19.9944L33.9 45.9444V5.14441C33.9 3.74441 34.375 2.64441 35.325 1.84441C36.275 1.04441 37.3 0.644409 38.4 0.644409C38.9 0.644409 39.425 0.744409 39.975 0.944409C40.525 1.14441 41.05 1.49441 41.55 1.99441L67.35 27.7944C67.85 28.2944 68.2001 28.7944 68.4001 29.2944C68.6001 29.7944 68.7001 30.3444 68.7001 30.9444C68.7001 31.5444 68.6001 32.0944 68.4001 32.5944C68.2001 33.0944 67.85 33.5944 67.35 34.0944L44.7 56.7444L67.35 79.3944C67.85 79.8944 68.2001 80.3944 68.4001 80.8944C68.6001 81.3944 68.7001 81.9444 68.7001 82.5444C68.7001 83.1444 68.6001 83.6944 68.4001 84.1944C68.2001 84.6944 67.85 85.1944 67.35 85.6944L41.55 111.494C41.05 111.994 40.525 112.344 39.975 112.544C39.425 112.744 38.9 112.844 38.4 112.844C37.3 112.844 36.275 112.444 35.325 111.644C34.375 110.844 33.9 109.744 33.9 108.344ZM42.9 45.9444L57.9001 30.9444L42.9 16.2444V45.9444ZM42.9 97.2444L57.9001 82.5444L42.9 67.5444V97.2444Z" fill="black" fill-opacity="0.2"/>
<path d="M33.9 108.344V67.5444L7.95005 93.4944C7.05005 94.3944 6.00005 94.8444 4.80005 94.8444C3.60005 94.8444 2.55005 94.3944 1.65005 93.4944C0.750049 92.5944 0.300049 91.5444 0.300049 90.3444C0.300049 89.1444 0.750049 88.0944 1.65005 87.1944L32.1 56.7444L1.65005 26.2944C0.750049 25.3944 0.300049 24.3444 0.300049 23.1444C0.300049 21.9444 0.750049 20.8944 1.65005 19.9944C2.55005 19.0944 3.60005 18.6444 4.80005 18.6444C6.00005 18.6444 7.05005 19.0944 7.95005 19.9944L33.9 45.9444V5.14441C33.9 3.74441 34.375 2.64441 35.325 1.84441C36.275 1.04441 37.3 0.644409 38.4 0.644409C38.9 0.644409 39.425 0.744409 39.975 0.944409C40.525 1.14441 41.05 1.49441 41.55 1.99441L67.35 27.7944C67.85 28.2944 68.2001 28.7944 68.4001 29.2944C68.6001 29.7944 68.7001 30.3444 68.7001 30.9444C68.7001 31.5444 68.6001 32.0944 68.4001 32.5944C68.2001 33.0944 67.85 33.5944 67.35 34.0944L44.7 56.7444L67.35 79.3944C67.85 79.8944 68.2001 80.3944 68.4001 80.8944C68.6001 81.3944 68.7001 81.9444 68.7001 82.5444C68.7001 83.1444 68.6001 83.6944 68.4001 84.1944C68.2001 84.6944 67.85 85.1944 67.35 85.6944L41.55 111.494C41.05 111.994 40.525 112.344 39.975 112.544C39.425 112.744 38.9 112.844 38.4 112.844C37.3 112.844 36.275 112.444 35.325 111.644C34.375 110.844 33.9 109.744 33.9 108.344ZM42.9 45.9444L57.9001 30.9444L42.9 16.2444V45.9444ZM42.9 97.2444L57.9001 82.5444L42.9 67.5444V97.2444Z" fill="black" fill-opacity="0.2"/>
</g>
</svg>
