<svg width="18" height="19" viewBox="0 0 18 19" fill="none" xmlns="http://www.w3.org/2000/svg">
<g id="bxs:smile">
<path id="Vector" d="M9 16.7502C13.1355 16.7502 16.5 13.3857 16.5 9.25024C16.5 5.11474 13.1355 1.75024 9 1.75024C4.8645 1.75024 1.5 5.11474 1.5 9.25024C1.5 13.3857 4.8645 16.7502 9 16.7502ZM11.6198 7.00024C11.7693 6.99642 11.9181 7.02259 12.0573 7.07718C12.1966 7.13178 12.3235 7.21371 12.4306 7.31815C12.5377 7.42258 12.6228 7.5474 12.6809 7.68524C12.739 7.82309 12.7689 7.97117 12.7689 8.12075C12.7688 8.27034 12.7388 8.4184 12.6806 8.55621C12.6224 8.69401 12.5373 8.81878 12.4301 8.92314C12.3229 9.0275 12.1959 9.10934 12.0566 9.16385C11.9173 9.21835 11.7685 9.24441 11.619 9.24049C11.3269 9.23284 11.0494 9.11142 10.8456 8.90211C10.6418 8.6928 10.5278 8.41216 10.5279 8.12C10.528 7.82785 10.6422 7.54728 10.8461 7.33811C11.0501 7.12894 11.3277 7.0077 11.6198 7.00024ZM8.394 12.1895C8.79402 12.2697 9.20598 12.2697 9.606 12.1895C9.79575 12.1505 9.98475 12.0912 10.1685 12.0147C10.344 11.9397 10.5165 11.8467 10.6778 11.7387C10.8338 11.6322 10.983 11.5092 11.121 11.372C11.2583 11.2355 11.3813 11.0862 11.4878 10.928L12.7313 11.7657C12.408 12.2449 11.9958 12.6576 11.517 12.9815C11.0292 13.3107 10.4816 13.541 9.90525 13.6595C9.30769 13.7795 8.69221 13.7793 8.09475 13.6587C7.51818 13.542 6.97057 13.3118 6.48375 12.9815C6.00498 12.6568 5.59239 12.244 5.268 11.765L6.5115 10.9272C6.61875 11.0855 6.74175 11.2347 6.8775 11.3697C7.29159 11.7859 7.819 12.071 8.394 12.1895ZM6.375 7.00024C6.52279 7.00029 6.66912 7.02945 6.80563 7.08605C6.94215 7.14265 7.06618 7.22559 7.17065 7.33012C7.27512 7.43466 7.35797 7.55875 7.41448 7.6953C7.47099 7.83186 7.50005 7.97821 7.5 8.12599C7.49995 8.27378 7.47079 8.42011 7.41419 8.55663C7.35759 8.69315 7.27466 8.81718 7.17012 8.92165C7.06559 9.02611 6.9415 9.10896 6.80494 9.16547C6.66839 9.22198 6.52204 9.25104 6.37425 9.25099C6.07578 9.2509 5.78958 9.13223 5.5786 8.92111C5.36762 8.71 5.24915 8.42371 5.24925 8.12524C5.24935 7.82678 5.36801 7.54057 5.57913 7.32959C5.79025 7.11862 6.07653 7.00014 6.375 7.00024Z" fill="#344BFD"/>
</g>
</svg>
