<svg width="48" height="44" viewBox="0 0 48 44" fill="none" xmlns="http://www.w3.org/2000/svg">
<path id="Union" d="M20.9665 23.2832L18.9832 20.3082C18.7887 19.9971 18.5165 19.7443 18.1665 19.5499C17.8165 19.3554 17.4471 19.2582 17.0582 19.2582H1.77484C1.34706 18.2471 1.05539 17.2749 0.899837 16.3416C0.744282 15.4082 0.666504 14.436 0.666504 13.4249C0.666504 9.76933 1.8915 6.71655 4.3415 4.26655C6.7915 1.81655 9.84428 0.591553 13.4998 0.591553C15.5221 0.591553 17.4471 1.01933 19.2748 1.87489C21.1026 2.73044 22.6776 3.936 23.9998 5.49155C25.3221 3.936 26.8971 2.73044 28.7248 1.87489C30.5526 1.01933 32.4776 0.591553 34.4998 0.591553C38.1554 0.591553 41.2082 1.81655 43.6582 4.26655C46.1082 6.71655 47.3332 9.76933 47.3332 13.4249C47.3332 14.436 47.2554 15.4082 47.0998 16.3416C46.9443 17.2749 46.6526 18.2471 46.2248 19.2582H32.3415L28.3165 13.3082C28.0832 12.9582 27.7818 12.6957 27.4123 12.5207C27.0429 12.3457 26.6443 12.2582 26.2165 12.2582C25.7109 12.2582 25.2734 12.4041 24.904 12.6957C24.5346 12.9874 24.2721 13.3666 24.1165 13.8332L20.9665 23.2832ZM23.9998 43.4082L20.6165 40.3749C16.5332 36.7193 13.1887 33.5888 10.5832 30.9832C7.97762 28.3777 5.93595 26.0249 4.45817 23.9249H15.6582L19.6832 29.8749C19.9165 30.2249 20.2179 30.4874 20.5873 30.6624C20.9568 30.8374 21.3554 30.9249 21.7832 30.9249C22.2887 30.9249 22.7262 30.7791 23.0957 30.4874C23.4651 30.1957 23.7276 29.8166 23.8832 29.3499L27.0332 19.8416L29.0748 22.8749C29.2693 23.186 29.5415 23.4388 29.8915 23.6332C30.2415 23.8277 30.611 23.9249 30.9998 23.9249H43.5415C42.0637 26.0249 40.0221 28.3777 37.4165 30.9832C34.811 33.5888 31.4665 36.7193 27.3832 40.3749L23.9998 43.4082Z" fill="white"/>
</svg>
