<svg width="149" height="137" viewBox="0 0 149 137" fill="none" xmlns="http://www.w3.org/2000/svg">
<path id="Corazon" d="M74.5 136.138L66.9009 129.271C53.8032 117.269 42.9914 106.906 34.4655 98.1833C25.9396 89.4602 19.1437 81.6651 14.0776 74.798C9.01149 67.9309 5.45904 61.7133 3.42025 56.1454C1.38146 50.5775 0.362061 44.9477 0.362061 39.256C0.362061 28.1202 4.09985 18.8093 11.5754 11.3236C19.051 3.8378 28.2873 0.0949097 39.2845 0.0949097C46.3276 0.0949097 52.8455 1.76529 58.8384 5.10605C64.8312 8.44681 70.0517 13.2723 74.5 19.5827C79.6896 12.9011 85.1882 7.98281 90.9957 4.82765C96.8032 1.67249 103.043 0.0949097 109.716 0.0949097C120.713 0.0949097 129.949 3.8378 137.425 11.3236C144.9 18.8093 148.638 28.1202 148.638 39.256C148.638 44.9477 147.619 50.5775 145.58 56.1454C143.541 61.7133 139.989 67.9309 134.922 74.798C129.856 81.6651 123.06 89.4602 114.534 98.1833C106.009 106.906 95.1968 117.269 82.0991 129.271L74.5 136.138Z" fill="url(#paint0_linear_341_3923)"/>
<defs>
<linearGradient id="paint0_linear_341_3923" x1="0.362061" y1="68.1165" x2="148.638" y2="68.1165" gradientUnits="userSpaceOnUse">
<stop stop-color="#006BFF"/>
<stop offset="1" stop-color="#2D83FA"/>
</linearGradient>
</defs>
</svg>
