<svg width="24" height="24" viewBox="0 0 24 24" fill="none" xmlns="http://www.w3.org/2000/svg">
<g id="Group">
<g id="Group_2">
<g id="Vector">
<path d="M0 24.0001H4.99931L19.7439 9.25547L14.7446 4.25616L0 19.0008V24.0001ZM2.6663 20.1073L14.7446 8.02897L15.9711 9.25547L3.89279 21.3338H2.6663V20.1073Z" fill="black"/>
<path d="M0 24.0001H4.99931L19.7439 9.25547L14.7446 4.25616L0 19.0008V24.0001ZM2.6663 20.1073L14.7446 8.02897L15.9711 9.25547L3.89279 21.3338H2.6663V20.1073Z" fill="black" fill-opacity="0.2"/>
<path d="M0 24.0001H4.99931L19.7439 9.25547L14.7446 4.25616L0 19.0008V24.0001ZM2.6663 20.1073L14.7446 8.02897L15.9711 9.25547L3.89279 21.3338H2.6663V20.1073Z" fill="black" fill-opacity="0.2"/>
<path d="M0 24.0001H4.99931L19.7439 9.25547L14.7446 4.25616L0 19.0008V24.0001ZM2.6663 20.1073L14.7446 8.02897L15.9711 9.25547L3.89279 21.3338H2.6663V20.1073Z" fill="black" fill-opacity="0.2"/>
<path d="M0 24.0001H4.99931L19.7439 9.25547L14.7446 4.25616L0 19.0008V24.0001ZM2.6663 20.1073L14.7446 8.02897L15.9711 9.25547L3.89279 21.3338H2.6663V20.1073Z" fill="black" fill-opacity="0.2"/>
</g>
</g>
<g id="Group_3">
<g id="Vector_2">
<path d="M20.4905 0.390007C19.9706 -0.129921 19.1307 -0.129921 18.6108 0.390007L16.1711 2.82967L21.1704 7.82897L23.6101 5.38931C24.13 4.86939 24.13 4.0295 23.6101 3.50957L20.4905 0.390007Z" fill="black"/>
<path d="M20.4905 0.390007C19.9706 -0.129921 19.1307 -0.129921 18.6108 0.390007L16.1711 2.82967L21.1704 7.82897L23.6101 5.38931C24.13 4.86939 24.13 4.0295 23.6101 3.50957L20.4905 0.390007Z" fill="black" fill-opacity="0.2"/>
<path d="M20.4905 0.390007C19.9706 -0.129921 19.1307 -0.129921 18.6108 0.390007L16.1711 2.82967L21.1704 7.82897L23.6101 5.38931C24.13 4.86939 24.13 4.0295 23.6101 3.50957L20.4905 0.390007Z" fill="black" fill-opacity="0.2"/>
<path d="M20.4905 0.390007C19.9706 -0.129921 19.1307 -0.129921 18.6108 0.390007L16.1711 2.82967L21.1704 7.82897L23.6101 5.38931C24.13 4.86939 24.13 4.0295 23.6101 3.50957L20.4905 0.390007Z" fill="black" fill-opacity="0.2"/>
<path d="M20.4905 0.390007C19.9706 -0.129921 19.1307 -0.129921 18.6108 0.390007L16.1711 2.82967L21.1704 7.82897L23.6101 5.38931C24.13 4.86939 24.13 4.0295 23.6101 3.50957L20.4905 0.390007Z" fill="black" fill-opacity="0.2"/>
</g>
</g>
</g>
</svg>
