<svg width="35" height="29" viewBox="0 0 35 29" fill="none" xmlns="http://www.w3.org/2000/svg">
<g id="Union">
<path d="M17.5 0.666687L34.6111 13.5L32.7444 15.9889L29.9444 13.8889V28.6667H5.05552V13.8889L2.25552 15.9889L0.388855 13.5L17.5 0.666687ZM10.2666 14.7445C10.2666 16.1185 11.0055 17.5834 12.4833 19.1389C13.9611 20.6945 15.6333 22.3148 17.5 24C19.3666 22.3148 21.0389 20.6945 22.5166 19.1389C23.9944 17.5834 24.7333 16.1185 24.7333 14.7445C24.7333 13.6037 24.3444 12.6574 23.5666 11.9056C22.7889 11.1537 21.8555 10.7778 20.7666 10.7778C20.0926 10.7778 19.4768 10.9139 18.9194 11.1861C18.362 11.4584 17.8889 11.8148 17.5 12.2556C17.1111 11.8148 16.625 11.4584 16.0416 11.1861C15.4583 10.9139 14.8555 10.7778 14.2333 10.7778C13.1444 10.7778 12.2111 11.1537 11.4333 11.9056C10.6555 12.6574 10.2666 13.6037 10.2666 14.7445Z" fill="black"/>
<path d="M17.5 0.666687L34.6111 13.5L32.7444 15.9889L29.9444 13.8889V28.6667H5.05552V13.8889L2.25552 15.9889L0.388855 13.5L17.5 0.666687ZM10.2666 14.7445C10.2666 16.1185 11.0055 17.5834 12.4833 19.1389C13.9611 20.6945 15.6333 22.3148 17.5 24C19.3666 22.3148 21.0389 20.6945 22.5166 19.1389C23.9944 17.5834 24.7333 16.1185 24.7333 14.7445C24.7333 13.6037 24.3444 12.6574 23.5666 11.9056C22.7889 11.1537 21.8555 10.7778 20.7666 10.7778C20.0926 10.7778 19.4768 10.9139 18.9194 11.1861C18.362 11.4584 17.8889 11.8148 17.5 12.2556C17.1111 11.8148 16.625 11.4584 16.0416 11.1861C15.4583 10.9139 14.8555 10.7778 14.2333 10.7778C13.1444 10.7778 12.2111 11.1537 11.4333 11.9056C10.6555 12.6574 10.2666 13.6037 10.2666 14.7445Z" fill="black" fill-opacity="0.2"/>
<path d="M17.5 0.666687L34.6111 13.5L32.7444 15.9889L29.9444 13.8889V28.6667H5.05552V13.8889L2.25552 15.9889L0.388855 13.5L17.5 0.666687ZM10.2666 14.7445C10.2666 16.1185 11.0055 17.5834 12.4833 19.1389C13.9611 20.6945 15.6333 22.3148 17.5 24C19.3666 22.3148 21.0389 20.6945 22.5166 19.1389C23.9944 17.5834 24.7333 16.1185 24.7333 14.7445C24.7333 13.6037 24.3444 12.6574 23.5666 11.9056C22.7889 11.1537 21.8555 10.7778 20.7666 10.7778C20.0926 10.7778 19.4768 10.9139 18.9194 11.1861C18.362 11.4584 17.8889 11.8148 17.5 12.2556C17.1111 11.8148 16.625 11.4584 16.0416 11.1861C15.4583 10.9139 14.8555 10.7778 14.2333 10.7778C13.1444 10.7778 12.2111 11.1537 11.4333 11.9056C10.6555 12.6574 10.2666 13.6037 10.2666 14.7445Z" fill="black" fill-opacity="0.2"/>
<path d="M17.5 0.666687L34.6111 13.5L32.7444 15.9889L29.9444 13.8889V28.6667H5.05552V13.8889L2.25552 15.9889L0.388855 13.5L17.5 0.666687ZM10.2666 14.7445C10.2666 16.1185 11.0055 17.5834 12.4833 19.1389C13.9611 20.6945 15.6333 22.3148 17.5 24C19.3666 22.3148 21.0389 20.6945 22.5166 19.1389C23.9944 17.5834 24.7333 16.1185 24.7333 14.7445C24.7333 13.6037 24.3444 12.6574 23.5666 11.9056C22.7889 11.1537 21.8555 10.7778 20.7666 10.7778C20.0926 10.7778 19.4768 10.9139 18.9194 11.1861C18.362 11.4584 17.8889 11.8148 17.5 12.2556C17.1111 11.8148 16.625 11.4584 16.0416 11.1861C15.4583 10.9139 14.8555 10.7778 14.2333 10.7778C13.1444 10.7778 12.2111 11.1537 11.4333 11.9056C10.6555 12.6574 10.2666 13.6037 10.2666 14.7445Z" fill="black" fill-opacity="0.2"/>
<path d="M17.5 0.666687L34.6111 13.5L32.7444 15.9889L29.9444 13.8889V28.6667H5.05552V13.8889L2.25552 15.9889L0.388855 13.5L17.5 0.666687ZM10.2666 14.7445C10.2666 16.1185 11.0055 17.5834 12.4833 19.1389C13.9611 20.6945 15.6333 22.3148 17.5 24C19.3666 22.3148 21.0389 20.6945 22.5166 19.1389C23.9944 17.5834 24.7333 16.1185 24.7333 14.7445C24.7333 13.6037 24.3444 12.6574 23.5666 11.9056C22.7889 11.1537 21.8555 10.7778 20.7666 10.7778C20.0926 10.7778 19.4768 10.9139 18.9194 11.1861C18.362 11.4584 17.8889 11.8148 17.5 12.2556C17.1111 11.8148 16.625 11.4584 16.0416 11.1861C15.4583 10.9139 14.8555 10.7778 14.2333 10.7778C13.1444 10.7778 12.2111 11.1537 11.4333 11.9056C10.6555 12.6574 10.2666 13.6037 10.2666 14.7445Z" fill="black" fill-opacity="0.2"/>
</g>
</svg>
