<svg width="32" height="30" viewBox="0 0 32 30" fill="none" xmlns="http://www.w3.org/2000/svg">
<g id="Union">
<path d="M14.2278 15.7945L12.9056 13.8111C12.7759 13.6037 12.5945 13.4352 12.3611 13.3056C12.1278 13.1759 11.8815 13.1111 11.6222 13.1111H1.43335C1.14816 12.4371 0.953717 11.7889 0.850014 11.1667C0.74631 10.5445 0.694458 9.89632 0.694458 9.22224C0.694458 6.78521 1.51112 4.75002 3.14446 3.11669C4.77779 1.48335 6.81298 0.666687 9.25001 0.666687C10.5982 0.666687 11.8815 0.951872 13.1 1.52224C14.3185 2.09261 15.3685 2.89632 16.25 3.93335C17.1315 2.89632 18.1815 2.09261 19.4 1.52224C20.6185 0.951872 21.9019 0.666687 23.25 0.666687C25.6871 0.666687 27.7222 1.48335 29.3556 3.11669C30.9889 4.75002 31.8056 6.78521 31.8056 9.22224C31.8056 9.89632 31.7537 10.5445 31.65 11.1667C31.5463 11.7889 31.3519 12.4371 31.0667 13.1111H21.8111L19.1278 9.14447C18.9722 8.91113 18.7713 8.73613 18.525 8.61947C18.2787 8.5028 18.013 8.44447 17.7278 8.44447C17.3908 8.44447 17.0991 8.54169 16.8528 8.73613C16.6065 8.93058 16.4315 9.18335 16.3278 9.49447L14.2278 15.7945ZM16.25 29.2111L13.9945 27.1889C11.2722 24.7519 9.04261 22.6648 7.30557 20.9278C5.56853 19.1908 4.20742 17.6222 3.22224 16.2222H10.6889L13.3722 20.1889C13.5278 20.4222 13.7287 20.5972 13.975 20.7139C14.2213 20.8306 14.4871 20.8889 14.7722 20.8889C15.1093 20.8889 15.4009 20.7917 15.6472 20.5972C15.8935 20.4028 16.0685 20.15 16.1722 19.8389L18.2722 13.5L19.6333 15.5222C19.763 15.7297 19.9445 15.8982 20.1778 16.0278C20.4111 16.1574 20.6574 16.2222 20.9167 16.2222H29.2778C28.2926 17.6222 26.9315 19.1908 25.1945 20.9278C23.4574 22.6648 21.2278 24.7519 18.5056 27.1889L16.25 29.2111Z" fill="black"/>
<path d="M14.2278 15.7945L12.9056 13.8111C12.7759 13.6037 12.5945 13.4352 12.3611 13.3056C12.1278 13.1759 11.8815 13.1111 11.6222 13.1111H1.43335C1.14816 12.4371 0.953717 11.7889 0.850014 11.1667C0.74631 10.5445 0.694458 9.89632 0.694458 9.22224C0.694458 6.78521 1.51112 4.75002 3.14446 3.11669C4.77779 1.48335 6.81298 0.666687 9.25001 0.666687C10.5982 0.666687 11.8815 0.951872 13.1 1.52224C14.3185 2.09261 15.3685 2.89632 16.25 3.93335C17.1315 2.89632 18.1815 2.09261 19.4 1.52224C20.6185 0.951872 21.9019 0.666687 23.25 0.666687C25.6871 0.666687 27.7222 1.48335 29.3556 3.11669C30.9889 4.75002 31.8056 6.78521 31.8056 9.22224C31.8056 9.89632 31.7537 10.5445 31.65 11.1667C31.5463 11.7889 31.3519 12.4371 31.0667 13.1111H21.8111L19.1278 9.14447C18.9722 8.91113 18.7713 8.73613 18.525 8.61947C18.2787 8.5028 18.013 8.44447 17.7278 8.44447C17.3908 8.44447 17.0991 8.54169 16.8528 8.73613C16.6065 8.93058 16.4315 9.18335 16.3278 9.49447L14.2278 15.7945ZM16.25 29.2111L13.9945 27.1889C11.2722 24.7519 9.04261 22.6648 7.30557 20.9278C5.56853 19.1908 4.20742 17.6222 3.22224 16.2222H10.6889L13.3722 20.1889C13.5278 20.4222 13.7287 20.5972 13.975 20.7139C14.2213 20.8306 14.4871 20.8889 14.7722 20.8889C15.1093 20.8889 15.4009 20.7917 15.6472 20.5972C15.8935 20.4028 16.0685 20.15 16.1722 19.8389L18.2722 13.5L19.6333 15.5222C19.763 15.7297 19.9445 15.8982 20.1778 16.0278C20.4111 16.1574 20.6574 16.2222 20.9167 16.2222H29.2778C28.2926 17.6222 26.9315 19.1908 25.1945 20.9278C23.4574 22.6648 21.2278 24.7519 18.5056 27.1889L16.25 29.2111Z" fill="black" fill-opacity="0.2"/>
<path d="M14.2278 15.7945L12.9056 13.8111C12.7759 13.6037 12.5945 13.4352 12.3611 13.3056C12.1278 13.1759 11.8815 13.1111 11.6222 13.1111H1.43335C1.14816 12.4371 0.953717 11.7889 0.850014 11.1667C0.74631 10.5445 0.694458 9.89632 0.694458 9.22224C0.694458 6.78521 1.51112 4.75002 3.14446 3.11669C4.77779 1.48335 6.81298 0.666687 9.25001 0.666687C10.5982 0.666687 11.8815 0.951872 13.1 1.52224C14.3185 2.09261 15.3685 2.89632 16.25 3.93335C17.1315 2.89632 18.1815 2.09261 19.4 1.52224C20.6185 0.951872 21.9019 0.666687 23.25 0.666687C25.6871 0.666687 27.7222 1.48335 29.3556 3.11669C30.9889 4.75002 31.8056 6.78521 31.8056 9.22224C31.8056 9.89632 31.7537 10.5445 31.65 11.1667C31.5463 11.7889 31.3519 12.4371 31.0667 13.1111H21.8111L19.1278 9.14447C18.9722 8.91113 18.7713 8.73613 18.525 8.61947C18.2787 8.5028 18.013 8.44447 17.7278 8.44447C17.3908 8.44447 17.0991 8.54169 16.8528 8.73613C16.6065 8.93058 16.4315 9.18335 16.3278 9.49447L14.2278 15.7945ZM16.25 29.2111L13.9945 27.1889C11.2722 24.7519 9.04261 22.6648 7.30557 20.9278C5.56853 19.1908 4.20742 17.6222 3.22224 16.2222H10.6889L13.3722 20.1889C13.5278 20.4222 13.7287 20.5972 13.975 20.7139C14.2213 20.8306 14.4871 20.8889 14.7722 20.8889C15.1093 20.8889 15.4009 20.7917 15.6472 20.5972C15.8935 20.4028 16.0685 20.15 16.1722 19.8389L18.2722 13.5L19.6333 15.5222C19.763 15.7297 19.9445 15.8982 20.1778 16.0278C20.4111 16.1574 20.6574 16.2222 20.9167 16.2222H29.2778C28.2926 17.6222 26.9315 19.1908 25.1945 20.9278C23.4574 22.6648 21.2278 24.7519 18.5056 27.1889L16.25 29.2111Z" fill="black" fill-opacity="0.2"/>
<path d="M14.2278 15.7945L12.9056 13.8111C12.7759 13.6037 12.5945 13.4352 12.3611 13.3056C12.1278 13.1759 11.8815 13.1111 11.6222 13.1111H1.43335C1.14816 12.4371 0.953717 11.7889 0.850014 11.1667C0.74631 10.5445 0.694458 9.89632 0.694458 9.22224C0.694458 6.78521 1.51112 4.75002 3.14446 3.11669C4.77779 1.48335 6.81298 0.666687 9.25001 0.666687C10.5982 0.666687 11.8815 0.951872 13.1 1.52224C14.3185 2.09261 15.3685 2.89632 16.25 3.93335C17.1315 2.89632 18.1815 2.09261 19.4 1.52224C20.6185 0.951872 21.9019 0.666687 23.25 0.666687C25.6871 0.666687 27.7222 1.48335 29.3556 3.11669C30.9889 4.75002 31.8056 6.78521 31.8056 9.22224C31.8056 9.89632 31.7537 10.5445 31.65 11.1667C31.5463 11.7889 31.3519 12.4371 31.0667 13.1111H21.8111L19.1278 9.14447C18.9722 8.91113 18.7713 8.73613 18.525 8.61947C18.2787 8.5028 18.013 8.44447 17.7278 8.44447C17.3908 8.44447 17.0991 8.54169 16.8528 8.73613C16.6065 8.93058 16.4315 9.18335 16.3278 9.49447L14.2278 15.7945ZM16.25 29.2111L13.9945 27.1889C11.2722 24.7519 9.04261 22.6648 7.30557 20.9278C5.56853 19.1908 4.20742 17.6222 3.22224 16.2222H10.6889L13.3722 20.1889C13.5278 20.4222 13.7287 20.5972 13.975 20.7139C14.2213 20.8306 14.4871 20.8889 14.7722 20.8889C15.1093 20.8889 15.4009 20.7917 15.6472 20.5972C15.8935 20.4028 16.0685 20.15 16.1722 19.8389L18.2722 13.5L19.6333 15.5222C19.763 15.7297 19.9445 15.8982 20.1778 16.0278C20.4111 16.1574 20.6574 16.2222 20.9167 16.2222H29.2778C28.2926 17.6222 26.9315 19.1908 25.1945 20.9278C23.4574 22.6648 21.2278 24.7519 18.5056 27.1889L16.25 29.2111Z" fill="black" fill-opacity="0.2"/>
<path d="M14.2278 15.7945L12.9056 13.8111C12.7759 13.6037 12.5945 13.4352 12.3611 13.3056C12.1278 13.1759 11.8815 13.1111 11.6222 13.1111H1.43335C1.14816 12.4371 0.953717 11.7889 0.850014 11.1667C0.74631 10.5445 0.694458 9.89632 0.694458 9.22224C0.694458 6.78521 1.51112 4.75002 3.14446 3.11669C4.77779 1.48335 6.81298 0.666687 9.25001 0.666687C10.5982 0.666687 11.8815 0.951872 13.1 1.52224C14.3185 2.09261 15.3685 2.89632 16.25 3.93335C17.1315 2.89632 18.1815 2.09261 19.4 1.52224C20.6185 0.951872 21.9019 0.666687 23.25 0.666687C25.6871 0.666687 27.7222 1.48335 29.3556 3.11669C30.9889 4.75002 31.8056 6.78521 31.8056 9.22224C31.8056 9.89632 31.7537 10.5445 31.65 11.1667C31.5463 11.7889 31.3519 12.4371 31.0667 13.1111H21.8111L19.1278 9.14447C18.9722 8.91113 18.7713 8.73613 18.525 8.61947C18.2787 8.5028 18.013 8.44447 17.7278 8.44447C17.3908 8.44447 17.0991 8.54169 16.8528 8.73613C16.6065 8.93058 16.4315 9.18335 16.3278 9.49447L14.2278 15.7945ZM16.25 29.2111L13.9945 27.1889C11.2722 24.7519 9.04261 22.6648 7.30557 20.9278C5.56853 19.1908 4.20742 17.6222 3.22224 16.2222H10.6889L13.3722 20.1889C13.5278 20.4222 13.7287 20.5972 13.975 20.7139C14.2213 20.8306 14.4871 20.8889 14.7722 20.8889C15.1093 20.8889 15.4009 20.7917 15.6472 20.5972C15.8935 20.4028 16.0685 20.15 16.1722 19.8389L18.2722 13.5L19.6333 15.5222C19.763 15.7297 19.9445 15.8982 20.1778 16.0278C20.4111 16.1574 20.6574 16.2222 20.9167 16.2222H29.2778C28.2926 17.6222 26.9315 19.1908 25.1945 20.9278C23.4574 22.6648 21.2278 24.7519 18.5056 27.1889L16.25 29.2111Z" fill="black" fill-opacity="0.2"/>
</g>
</svg>
