<svg width="32" height="29" viewBox="0 0 32 29" fill="none" xmlns="http://www.w3.org/2000/svg">
<g id="Union">
<path d="M3.55557 28.6667C2.70001 28.6667 1.96761 28.3621 1.35835 27.7528C0.749088 27.1435 0.444458 26.4111 0.444458 25.5556V0.666687L3.05001 3.27224L5.61668 0.666687L8.22224 3.27224L10.8278 0.666687L13.3945 3.27224L16 0.666687L18.6056 3.27224L21.1722 0.666687L23.7778 3.27224L26.3834 0.666687L28.95 3.27224L31.5556 0.666687V25.5556C31.5556 26.4111 31.2509 27.1435 30.6417 27.7528C30.0324 28.3621 29.3 28.6667 28.4445 28.6667H3.55557ZM3.55557 25.5556H14.4445V16.2222H3.55557V25.5556ZM17.5556 25.5556H28.4445V22.4445H17.5556V25.5556ZM17.5556 19.3334H28.4445V16.2222H17.5556V19.3334ZM3.55557 13.1111H28.4445V8.44447H3.55557V13.1111Z" fill="black"/>
<path d="M3.55557 28.6667C2.70001 28.6667 1.96761 28.3621 1.35835 27.7528C0.749088 27.1435 0.444458 26.4111 0.444458 25.5556V0.666687L3.05001 3.27224L5.61668 0.666687L8.22224 3.27224L10.8278 0.666687L13.3945 3.27224L16 0.666687L18.6056 3.27224L21.1722 0.666687L23.7778 3.27224L26.3834 0.666687L28.95 3.27224L31.5556 0.666687V25.5556C31.5556 26.4111 31.2509 27.1435 30.6417 27.7528C30.0324 28.3621 29.3 28.6667 28.4445 28.6667H3.55557ZM3.55557 25.5556H14.4445V16.2222H3.55557V25.5556ZM17.5556 25.5556H28.4445V22.4445H17.5556V25.5556ZM17.5556 19.3334H28.4445V16.2222H17.5556V19.3334ZM3.55557 13.1111H28.4445V8.44447H3.55557V13.1111Z" fill="black" fill-opacity="0.2"/>
<path d="M3.55557 28.6667C2.70001 28.6667 1.96761 28.3621 1.35835 27.7528C0.749088 27.1435 0.444458 26.4111 0.444458 25.5556V0.666687L3.05001 3.27224L5.61668 0.666687L8.22224 3.27224L10.8278 0.666687L13.3945 3.27224L16 0.666687L18.6056 3.27224L21.1722 0.666687L23.7778 3.27224L26.3834 0.666687L28.95 3.27224L31.5556 0.666687V25.5556C31.5556 26.4111 31.2509 27.1435 30.6417 27.7528C30.0324 28.3621 29.3 28.6667 28.4445 28.6667H3.55557ZM3.55557 25.5556H14.4445V16.2222H3.55557V25.5556ZM17.5556 25.5556H28.4445V22.4445H17.5556V25.5556ZM17.5556 19.3334H28.4445V16.2222H17.5556V19.3334ZM3.55557 13.1111H28.4445V8.44447H3.55557V13.1111Z" fill="black" fill-opacity="0.2"/>
<path d="M3.55557 28.6667C2.70001 28.6667 1.96761 28.3621 1.35835 27.7528C0.749088 27.1435 0.444458 26.4111 0.444458 25.5556V0.666687L3.05001 3.27224L5.61668 0.666687L8.22224 3.27224L10.8278 0.666687L13.3945 3.27224L16 0.666687L18.6056 3.27224L21.1722 0.666687L23.7778 3.27224L26.3834 0.666687L28.95 3.27224L31.5556 0.666687V25.5556C31.5556 26.4111 31.2509 27.1435 30.6417 27.7528C30.0324 28.3621 29.3 28.6667 28.4445 28.6667H3.55557ZM3.55557 25.5556H14.4445V16.2222H3.55557V25.5556ZM17.5556 25.5556H28.4445V22.4445H17.5556V25.5556ZM17.5556 19.3334H28.4445V16.2222H17.5556V19.3334ZM3.55557 13.1111H28.4445V8.44447H3.55557V13.1111Z" fill="black" fill-opacity="0.2"/>
<path d="M3.55557 28.6667C2.70001 28.6667 1.96761 28.3621 1.35835 27.7528C0.749088 27.1435 0.444458 26.4111 0.444458 25.5556V0.666687L3.05001 3.27224L5.61668 0.666687L8.22224 3.27224L10.8278 0.666687L13.3945 3.27224L16 0.666687L18.6056 3.27224L21.1722 0.666687L23.7778 3.27224L26.3834 0.666687L28.95 3.27224L31.5556 0.666687V25.5556C31.5556 26.4111 31.2509 27.1435 30.6417 27.7528C30.0324 28.3621 29.3 28.6667 28.4445 28.6667H3.55557ZM3.55557 25.5556H14.4445V16.2222H3.55557V25.5556ZM17.5556 25.5556H28.4445V22.4445H17.5556V25.5556ZM17.5556 19.3334H28.4445V16.2222H17.5556V19.3334ZM3.55557 13.1111H28.4445V8.44447H3.55557V13.1111Z" fill="black" fill-opacity="0.2"/>
</g>
</svg>
