<svg width="24" height="25" viewBox="0 0 24 25" fill="none" xmlns="http://www.w3.org/2000/svg">
<g id="pulse_alert">
<mask id="mask0_388_250" style="mask-type:alpha" maskUnits="userSpaceOnUse" x="0" y="0" width="24" height="25">
<rect id="Bounding box" y="0.166748" width="24" height="24" fill="#D9D9D9"/>
</mask>
<g mask="url(#mask0_388_250)">
<path id="pulse_alert_2" d="M3.025 12.1667C2.65833 11.5834 2.39583 11.0042 2.2375 10.4292C2.07917 9.85425 2 9.25841 2 8.64175C2 7.07508 2.525 5.77091 3.575 4.72925C4.625 3.68758 5.93333 3.16675 7.5 3.16675C8.35 3.16675 9.17083 3.35008 9.9625 3.71675C10.7542 4.08341 11.4333 4.60008 12 5.26675C12.5667 4.60008 13.2417 4.08341 14.025 3.71675C14.8083 3.35008 15.6333 3.16675 16.5 3.16675C18.0667 3.16675 19.375 3.69591 20.425 4.75425C21.475 5.81258 22 7.12508 22 8.69175C21.4667 8.20842 20.8583 7.83342 20.175 7.56675C19.4917 7.30008 18.7667 7.16675 18 7.16675C16.5 7.16675 15.2 7.64591 14.1 8.60425C13 9.56258 12.3333 10.7501 12.1 12.1667H10.55L8.85 9.61675C8.75 9.46675 8.62917 9.35425 8.4875 9.27925C8.34583 9.20425 8.19167 9.16675 8.025 9.16675C7.85833 9.16675 7.7 9.20425 7.55 9.27925C7.4 9.35425 7.275 9.46675 7.175 9.61675L5.45 12.1667H3.025ZM12 21.1667L8.825 18.3167C7.80833 17.4001 6.9625 16.6126 6.2875 15.9542C5.6125 15.2959 5.03333 14.7001 4.55 14.1667H6C6.16667 14.1667 6.325 14.1251 6.475 14.0417C6.625 13.9584 6.74167 13.8501 6.825 13.7167L8 11.9667L9.175 13.7167C9.25833 13.8501 9.375 13.9584 9.525 14.0417C9.675 14.1251 9.83333 14.1667 10 14.1667H12.1C12.25 15.0834 12.5875 15.9084 13.1125 16.6417C13.6375 17.3751 14.2917 17.9584 15.075 18.3917L12 21.1667ZM18 17.1667C17.7167 17.1667 17.4792 17.0709 17.2875 16.8792C17.0958 16.6876 17 16.4501 17 16.1667C17 15.8834 17.0958 15.6459 17.2875 15.4542C17.4792 15.2626 17.7167 15.1667 18 15.1667C18.2833 15.1667 18.5208 15.2626 18.7125 15.4542C18.9042 15.6459 19 15.8834 19 16.1667C19 16.4501 18.9042 16.6876 18.7125 16.8792C18.5208 17.0709 18.2833 17.1667 18 17.1667ZM17 14.1667V9.16675H19V14.1667H17Z" fill="#FF0000"/>
</g>
</g>
</svg>
