<svg width="29" height="32" viewBox="0 0 29 32" fill="none" xmlns="http://www.w3.org/2000/svg">
<g id="Union">
<path d="M14.75 18.7778C14.3093 18.7778 13.9398 18.6287 13.6417 18.3305C13.3435 18.0324 13.1944 17.6629 13.1944 17.2222C13.1944 16.7815 13.3435 16.412 13.6417 16.1139C13.9398 15.8157 14.3093 15.6666 14.75 15.6666C15.1907 15.6666 15.5602 15.8157 15.8583 16.1139C16.1565 16.412 16.3056 16.7815 16.3056 17.2222C16.3056 17.6629 16.1565 18.0324 15.8583 18.3305C15.5602 18.6287 15.1907 18.7778 14.75 18.7778ZM8.52778 18.7778C8.08704 18.7778 7.71759 18.6287 7.41945 18.3305C7.1213 18.0324 6.97222 17.6629 6.97222 17.2222C6.97222 16.7815 7.1213 16.412 7.41945 16.1139C7.71759 15.8157 8.08704 15.6666 8.52778 15.6666C8.96852 15.6666 9.33796 15.8157 9.63611 16.1139C9.93426 16.412 10.0833 16.7815 10.0833 17.2222C10.0833 17.6629 9.93426 18.0324 9.63611 18.3305C9.33796 18.6287 8.96852 18.7778 8.52778 18.7778ZM20.9722 18.7778C20.5315 18.7778 20.162 18.6287 19.8639 18.3305C19.5657 18.0324 19.4167 17.6629 19.4167 17.2222C19.4167 16.7815 19.5657 16.412 19.8639 16.1139C20.162 15.8157 20.5315 15.6666 20.9722 15.6666C21.413 15.6666 21.7824 15.8157 22.0806 16.1139C22.3787 16.412 22.5278 16.7815 22.5278 17.2222C22.5278 17.6629 22.3787 18.0324 22.0806 18.3305C21.7824 18.6287 21.413 18.7778 20.9722 18.7778ZM14.75 25C14.3093 25 13.9398 24.8509 13.6417 24.5528C13.3435 24.2546 13.1944 23.8852 13.1944 23.4444C13.1944 23.0037 13.3435 22.6342 13.6417 22.3361C13.9398 22.0379 14.3093 21.8889 14.75 21.8889C15.1907 21.8889 15.5602 22.0379 15.8583 22.3361C16.1565 22.6342 16.3056 23.0037 16.3056 23.4444C16.3056 23.8852 16.1565 24.2546 15.8583 24.5528C15.5602 24.8509 15.1907 25 14.75 25ZM8.52778 25C8.08704 25 7.71759 24.8509 7.41945 24.5528C7.1213 24.2546 6.97222 23.8852 6.97222 23.4444C6.97222 23.0037 7.1213 22.6342 7.41945 22.3361C7.71759 22.0379 8.08704 21.8889 8.52778 21.8889C8.96852 21.8889 9.33796 22.0379 9.63611 22.3361C9.93426 22.6342 10.0833 23.0037 10.0833 23.4444C10.0833 23.8852 9.93426 24.2546 9.63611 24.5528C9.33796 24.8509 8.96852 25 8.52778 25ZM20.9722 25C20.5315 25 20.162 24.8509 19.8639 24.5528C19.5657 24.2546 19.4167 23.8852 19.4167 23.4444C19.4167 23.0037 19.5657 22.6342 19.8639 22.3361C20.162 22.0379 20.5315 21.8889 20.9722 21.8889C21.413 21.8889 21.7824 22.0379 22.0806 22.3361C22.3787 22.6342 22.5278 23.0037 22.5278 23.4444C22.5278 23.8852 22.3787 24.2546 22.0806 24.5528C21.7824 24.8509 21.413 25 20.9722 25ZM3.86111 31.2222C3.00556 31.2222 2.27315 30.9176 1.66389 30.3083C1.05463 29.6991 0.75 28.9666 0.75 28.1111V6.33331C0.75 5.47775 1.05463 4.74534 1.66389 4.13608C2.27315 3.52683 3.00556 3.2222 3.86111 3.2222H5.41667V0.111084H8.52778V3.2222H20.9722V0.111084H24.0833V3.2222H25.6389C26.4944 3.2222 27.2269 3.52683 27.8361 4.13608C28.4454 4.74534 28.75 5.47775 28.75 6.33331V28.1111C28.75 28.9666 28.4454 29.6991 27.8361 30.3083C27.2269 30.9176 26.4944 31.2222 25.6389 31.2222H3.86111ZM3.86111 28.1111H25.6389V12.5555H3.86111V28.1111Z" fill="black"/>
<path d="M14.75 18.7778C14.3093 18.7778 13.9398 18.6287 13.6417 18.3305C13.3435 18.0324 13.1944 17.6629 13.1944 17.2222C13.1944 16.7815 13.3435 16.412 13.6417 16.1139C13.9398 15.8157 14.3093 15.6666 14.75 15.6666C15.1907 15.6666 15.5602 15.8157 15.8583 16.1139C16.1565 16.412 16.3056 16.7815 16.3056 17.2222C16.3056 17.6629 16.1565 18.0324 15.8583 18.3305C15.5602 18.6287 15.1907 18.7778 14.75 18.7778ZM8.52778 18.7778C8.08704 18.7778 7.71759 18.6287 7.41945 18.3305C7.1213 18.0324 6.97222 17.6629 6.97222 17.2222C6.97222 16.7815 7.1213 16.412 7.41945 16.1139C7.71759 15.8157 8.08704 15.6666 8.52778 15.6666C8.96852 15.6666 9.33796 15.8157 9.63611 16.1139C9.93426 16.412 10.0833 16.7815 10.0833 17.2222C10.0833 17.6629 9.93426 18.0324 9.63611 18.3305C9.33796 18.6287 8.96852 18.7778 8.52778 18.7778ZM20.9722 18.7778C20.5315 18.7778 20.162 18.6287 19.8639 18.3305C19.5657 18.0324 19.4167 17.6629 19.4167 17.2222C19.4167 16.7815 19.5657 16.412 19.8639 16.1139C20.162 15.8157 20.5315 15.6666 20.9722 15.6666C21.413 15.6666 21.7824 15.8157 22.0806 16.1139C22.3787 16.412 22.5278 16.7815 22.5278 17.2222C22.5278 17.6629 22.3787 18.0324 22.0806 18.3305C21.7824 18.6287 21.413 18.7778 20.9722 18.7778ZM14.75 25C14.3093 25 13.9398 24.8509 13.6417 24.5528C13.3435 24.2546 13.1944 23.8852 13.1944 23.4444C13.1944 23.0037 13.3435 22.6342 13.6417 22.3361C13.9398 22.0379 14.3093 21.8889 14.75 21.8889C15.1907 21.8889 15.5602 22.0379 15.8583 22.3361C16.1565 22.6342 16.3056 23.0037 16.3056 23.4444C16.3056 23.8852 16.1565 24.2546 15.8583 24.5528C15.5602 24.8509 15.1907 25 14.75 25ZM8.52778 25C8.08704 25 7.71759 24.8509 7.41945 24.5528C7.1213 24.2546 6.97222 23.8852 6.97222 23.4444C6.97222 23.0037 7.1213 22.6342 7.41945 22.3361C7.71759 22.0379 8.08704 21.8889 8.52778 21.8889C8.96852 21.8889 9.33796 22.0379 9.63611 22.3361C9.93426 22.6342 10.0833 23.0037 10.0833 23.4444C10.0833 23.8852 9.93426 24.2546 9.63611 24.5528C9.33796 24.8509 8.96852 25 8.52778 25ZM20.9722 25C20.5315 25 20.162 24.8509 19.8639 24.5528C19.5657 24.2546 19.4167 23.8852 19.4167 23.4444C19.4167 23.0037 19.5657 22.6342 19.8639 22.3361C20.162 22.0379 20.5315 21.8889 20.9722 21.8889C21.413 21.8889 21.7824 22.0379 22.0806 22.3361C22.3787 22.6342 22.5278 23.0037 22.5278 23.4444C22.5278 23.8852 22.3787 24.2546 22.0806 24.5528C21.7824 24.8509 21.413 25 20.9722 25ZM3.86111 31.2222C3.00556 31.2222 2.27315 30.9176 1.66389 30.3083C1.05463 29.6991 0.75 28.9666 0.75 28.1111V6.33331C0.75 5.47775 1.05463 4.74534 1.66389 4.13608C2.27315 3.52683 3.00556 3.2222 3.86111 3.2222H5.41667V0.111084H8.52778V3.2222H20.9722V0.111084H24.0833V3.2222H25.6389C26.4944 3.2222 27.2269 3.52683 27.8361 4.13608C28.4454 4.74534 28.75 5.47775 28.75 6.33331V28.1111C28.75 28.9666 28.4454 29.6991 27.8361 30.3083C27.2269 30.9176 26.4944 31.2222 25.6389 31.2222H3.86111ZM3.86111 28.1111H25.6389V12.5555H3.86111V28.1111Z" fill="black" fill-opacity="0.2"/>
<path d="M14.75 18.7778C14.3093 18.7778 13.9398 18.6287 13.6417 18.3305C13.3435 18.0324 13.1944 17.6629 13.1944 17.2222C13.1944 16.7815 13.3435 16.412 13.6417 16.1139C13.9398 15.8157 14.3093 15.6666 14.75 15.6666C15.1907 15.6666 15.5602 15.8157 15.8583 16.1139C16.1565 16.412 16.3056 16.7815 16.3056 17.2222C16.3056 17.6629 16.1565 18.0324 15.8583 18.3305C15.5602 18.6287 15.1907 18.7778 14.75 18.7778ZM8.52778 18.7778C8.08704 18.7778 7.71759 18.6287 7.41945 18.3305C7.1213 18.0324 6.97222 17.6629 6.97222 17.2222C6.97222 16.7815 7.1213 16.412 7.41945 16.1139C7.71759 15.8157 8.08704 15.6666 8.52778 15.6666C8.96852 15.6666 9.33796 15.8157 9.63611 16.1139C9.93426 16.412 10.0833 16.7815 10.0833 17.2222C10.0833 17.6629 9.93426 18.0324 9.63611 18.3305C9.33796 18.6287 8.96852 18.7778 8.52778 18.7778ZM20.9722 18.7778C20.5315 18.7778 20.162 18.6287 19.8639 18.3305C19.5657 18.0324 19.4167 17.6629 19.4167 17.2222C19.4167 16.7815 19.5657 16.412 19.8639 16.1139C20.162 15.8157 20.5315 15.6666 20.9722 15.6666C21.413 15.6666 21.7824 15.8157 22.0806 16.1139C22.3787 16.412 22.5278 16.7815 22.5278 17.2222C22.5278 17.6629 22.3787 18.0324 22.0806 18.3305C21.7824 18.6287 21.413 18.7778 20.9722 18.7778ZM14.75 25C14.3093 25 13.9398 24.8509 13.6417 24.5528C13.3435 24.2546 13.1944 23.8852 13.1944 23.4444C13.1944 23.0037 13.3435 22.6342 13.6417 22.3361C13.9398 22.0379 14.3093 21.8889 14.75 21.8889C15.1907 21.8889 15.5602 22.0379 15.8583 22.3361C16.1565 22.6342 16.3056 23.0037 16.3056 23.4444C16.3056 23.8852 16.1565 24.2546 15.8583 24.5528C15.5602 24.8509 15.1907 25 14.75 25ZM8.52778 25C8.08704 25 7.71759 24.8509 7.41945 24.5528C7.1213 24.2546 6.97222 23.8852 6.97222 23.4444C6.97222 23.0037 7.1213 22.6342 7.41945 22.3361C7.71759 22.0379 8.08704 21.8889 8.52778 21.8889C8.96852 21.8889 9.33796 22.0379 9.63611 22.3361C9.93426 22.6342 10.0833 23.0037 10.0833 23.4444C10.0833 23.8852 9.93426 24.2546 9.63611 24.5528C9.33796 24.8509 8.96852 25 8.52778 25ZM20.9722 25C20.5315 25 20.162 24.8509 19.8639 24.5528C19.5657 24.2546 19.4167 23.8852 19.4167 23.4444C19.4167 23.0037 19.5657 22.6342 19.8639 22.3361C20.162 22.0379 20.5315 21.8889 20.9722 21.8889C21.413 21.8889 21.7824 22.0379 22.0806 22.3361C22.3787 22.6342 22.5278 23.0037 22.5278 23.4444C22.5278 23.8852 22.3787 24.2546 22.0806 24.5528C21.7824 24.8509 21.413 25 20.9722 25ZM3.86111 31.2222C3.00556 31.2222 2.27315 30.9176 1.66389 30.3083C1.05463 29.6991 0.75 28.9666 0.75 28.1111V6.33331C0.75 5.47775 1.05463 4.74534 1.66389 4.13608C2.27315 3.52683 3.00556 3.2222 3.86111 3.2222H5.41667V0.111084H8.52778V3.2222H20.9722V0.111084H24.0833V3.2222H25.6389C26.4944 3.2222 27.2269 3.52683 27.8361 4.13608C28.4454 4.74534 28.75 5.47775 28.75 6.33331V28.1111C28.75 28.9666 28.4454 29.6991 27.8361 30.3083C27.2269 30.9176 26.4944 31.2222 25.6389 31.2222H3.86111ZM3.86111 28.1111H25.6389V12.5555H3.86111V28.1111Z" fill="black" fill-opacity="0.2"/>
<path d="M14.75 18.7778C14.3093 18.7778 13.9398 18.6287 13.6417 18.3305C13.3435 18.0324 13.1944 17.6629 13.1944 17.2222C13.1944 16.7815 13.3435 16.412 13.6417 16.1139C13.9398 15.8157 14.3093 15.6666 14.75 15.6666C15.1907 15.6666 15.5602 15.8157 15.8583 16.1139C16.1565 16.412 16.3056 16.7815 16.3056 17.2222C16.3056 17.6629 16.1565 18.0324 15.8583 18.3305C15.5602 18.6287 15.1907 18.7778 14.75 18.7778ZM8.52778 18.7778C8.08704 18.7778 7.71759 18.6287 7.41945 18.3305C7.1213 18.0324 6.97222 17.6629 6.97222 17.2222C6.97222 16.7815 7.1213 16.412 7.41945 16.1139C7.71759 15.8157 8.08704 15.6666 8.52778 15.6666C8.96852 15.6666 9.33796 15.8157 9.63611 16.1139C9.93426 16.412 10.0833 16.7815 10.0833 17.2222C10.0833 17.6629 9.93426 18.0324 9.63611 18.3305C9.33796 18.6287 8.96852 18.7778 8.52778 18.7778ZM20.9722 18.7778C20.5315 18.7778 20.162 18.6287 19.8639 18.3305C19.5657 18.0324 19.4167 17.6629 19.4167 17.2222C19.4167 16.7815 19.5657 16.412 19.8639 16.1139C20.162 15.8157 20.5315 15.6666 20.9722 15.6666C21.413 15.6666 21.7824 15.8157 22.0806 16.1139C22.3787 16.412 22.5278 16.7815 22.5278 17.2222C22.5278 17.6629 22.3787 18.0324 22.0806 18.3305C21.7824 18.6287 21.413 18.7778 20.9722 18.7778ZM14.75 25C14.3093 25 13.9398 24.8509 13.6417 24.5528C13.3435 24.2546 13.1944 23.8852 13.1944 23.4444C13.1944 23.0037 13.3435 22.6342 13.6417 22.3361C13.9398 22.0379 14.3093 21.8889 14.75 21.8889C15.1907 21.8889 15.5602 22.0379 15.8583 22.3361C16.1565 22.6342 16.3056 23.0037 16.3056 23.4444C16.3056 23.8852 16.1565 24.2546 15.8583 24.5528C15.5602 24.8509 15.1907 25 14.75 25ZM8.52778 25C8.08704 25 7.71759 24.8509 7.41945 24.5528C7.1213 24.2546 6.97222 23.8852 6.97222 23.4444C6.97222 23.0037 7.1213 22.6342 7.41945 22.3361C7.71759 22.0379 8.08704 21.8889 8.52778 21.8889C8.96852 21.8889 9.33796 22.0379 9.63611 22.3361C9.93426 22.6342 10.0833 23.0037 10.0833 23.4444C10.0833 23.8852 9.93426 24.2546 9.63611 24.5528C9.33796 24.8509 8.96852 25 8.52778 25ZM20.9722 25C20.5315 25 20.162 24.8509 19.8639 24.5528C19.5657 24.2546 19.4167 23.8852 19.4167 23.4444C19.4167 23.0037 19.5657 22.6342 19.8639 22.3361C20.162 22.0379 20.5315 21.8889 20.9722 21.8889C21.413 21.8889 21.7824 22.0379 22.0806 22.3361C22.3787 22.6342 22.5278 23.0037 22.5278 23.4444C22.5278 23.8852 22.3787 24.2546 22.0806 24.5528C21.7824 24.8509 21.413 25 20.9722 25ZM3.86111 31.2222C3.00556 31.2222 2.27315 30.9176 1.66389 30.3083C1.05463 29.6991 0.75 28.9666 0.75 28.1111V6.33331C0.75 5.47775 1.05463 4.74534 1.66389 4.13608C2.27315 3.52683 3.00556 3.2222 3.86111 3.2222H5.41667V0.111084H8.52778V3.2222H20.9722V0.111084H24.0833V3.2222H25.6389C26.4944 3.2222 27.2269 3.52683 27.8361 4.13608C28.4454 4.74534 28.75 5.47775 28.75 6.33331V28.1111C28.75 28.9666 28.4454 29.6991 27.8361 30.3083C27.2269 30.9176 26.4944 31.2222 25.6389 31.2222H3.86111ZM3.86111 28.1111H25.6389V12.5555H3.86111V28.1111Z" fill="black" fill-opacity="0.2"/>
<path d="M14.75 18.7778C14.3093 18.7778 13.9398 18.6287 13.6417 18.3305C13.3435 18.0324 13.1944 17.6629 13.1944 17.2222C13.1944 16.7815 13.3435 16.412 13.6417 16.1139C13.9398 15.8157 14.3093 15.6666 14.75 15.6666C15.1907 15.6666 15.5602 15.8157 15.8583 16.1139C16.1565 16.412 16.3056 16.7815 16.3056 17.2222C16.3056 17.6629 16.1565 18.0324 15.8583 18.3305C15.5602 18.6287 15.1907 18.7778 14.75 18.7778ZM8.52778 18.7778C8.08704 18.7778 7.71759 18.6287 7.41945 18.3305C7.1213 18.0324 6.97222 17.6629 6.97222 17.2222C6.97222 16.7815 7.1213 16.412 7.41945 16.1139C7.71759 15.8157 8.08704 15.6666 8.52778 15.6666C8.96852 15.6666 9.33796 15.8157 9.63611 16.1139C9.93426 16.412 10.0833 16.7815 10.0833 17.2222C10.0833 17.6629 9.93426 18.0324 9.63611 18.3305C9.33796 18.6287 8.96852 18.7778 8.52778 18.7778ZM20.9722 18.7778C20.5315 18.7778 20.162 18.6287 19.8639 18.3305C19.5657 18.0324 19.4167 17.6629 19.4167 17.2222C19.4167 16.7815 19.5657 16.412 19.8639 16.1139C20.162 15.8157 20.5315 15.6666 20.9722 15.6666C21.413 15.6666 21.7824 15.8157 22.0806 16.1139C22.3787 16.412 22.5278 16.7815 22.5278 17.2222C22.5278 17.6629 22.3787 18.0324 22.0806 18.3305C21.7824 18.6287 21.413 18.7778 20.9722 18.7778ZM14.75 25C14.3093 25 13.9398 24.8509 13.6417 24.5528C13.3435 24.2546 13.1944 23.8852 13.1944 23.4444C13.1944 23.0037 13.3435 22.6342 13.6417 22.3361C13.9398 22.0379 14.3093 21.8889 14.75 21.8889C15.1907 21.8889 15.5602 22.0379 15.8583 22.3361C16.1565 22.6342 16.3056 23.0037 16.3056 23.4444C16.3056 23.8852 16.1565 24.2546 15.8583 24.5528C15.5602 24.8509 15.1907 25 14.75 25ZM8.52778 25C8.08704 25 7.71759 24.8509 7.41945 24.5528C7.1213 24.2546 6.97222 23.8852 6.97222 23.4444C6.97222 23.0037 7.1213 22.6342 7.41945 22.3361C7.71759 22.0379 8.08704 21.8889 8.52778 21.8889C8.96852 21.8889 9.33796 22.0379 9.63611 22.3361C9.93426 22.6342 10.0833 23.0037 10.0833 23.4444C10.0833 23.8852 9.93426 24.2546 9.63611 24.5528C9.33796 24.8509 8.96852 25 8.52778 25ZM20.9722 25C20.5315 25 20.162 24.8509 19.8639 24.5528C19.5657 24.2546 19.4167 23.8852 19.4167 23.4444C19.4167 23.0037 19.5657 22.6342 19.8639 22.3361C20.162 22.0379 20.5315 21.8889 20.9722 21.8889C21.413 21.8889 21.7824 22.0379 22.0806 22.3361C22.3787 22.6342 22.5278 23.0037 22.5278 23.4444C22.5278 23.8852 22.3787 24.2546 22.0806 24.5528C21.7824 24.8509 21.413 25 20.9722 25ZM3.86111 31.2222C3.00556 31.2222 2.27315 30.9176 1.66389 30.3083C1.05463 29.6991 0.75 28.9666 0.75 28.1111V6.33331C0.75 5.47775 1.05463 4.74534 1.66389 4.13608C2.27315 3.52683 3.00556 3.2222 3.86111 3.2222H5.41667V0.111084H8.52778V3.2222H20.9722V0.111084H24.0833V3.2222H25.6389C26.4944 3.2222 27.2269 3.52683 27.8361 4.13608C28.4454 4.74534 28.75 5.47775 28.75 6.33331V28.1111C28.75 28.9666 28.4454 29.6991 27.8361 30.3083C27.2269 30.9176 26.4944 31.2222 25.6389 31.2222H3.86111ZM3.86111 28.1111H25.6389V12.5555H3.86111V28.1111Z" fill="black" fill-opacity="0.2"/>
</g>
</svg>
