<svg width="38" height="38" viewBox="0 0 38 38" fill="none" xmlns="http://www.w3.org/2000/svg">
<path id="Union" d="M7.52105 28.5192C9.10757 27.306 10.8807 26.3494 12.8406 25.6495C14.8004 24.9496 16.8535 24.5996 19 24.5996C21.1465 24.5996 23.1996 24.9496 25.1595 25.6495C27.1193 26.3494 28.8925 27.306 30.479 28.5192C31.5678 27.2438 32.4155 25.7973 33.0221 24.1796C33.6287 22.562 33.932 20.8355 33.932 19.0001C33.932 14.8627 32.4777 11.3397 29.5691 8.43103C26.6605 5.5224 23.1374 4.06808 19 4.06808C14.8626 4.06808 11.3396 5.5224 8.43097 8.43103C5.52234 11.3397 4.06802 14.8627 4.06802 19.0001C4.06802 20.8355 4.37133 22.562 4.97794 24.1796C5.58455 25.7973 6.43226 27.2438 7.52105 28.5192ZM19 20.8666C17.1646 20.8666 15.617 20.2366 14.3571 18.9768C13.0972 17.7169 12.4673 16.1692 12.4673 14.3338C12.4673 12.4984 13.0972 10.9508 14.3571 9.69092C15.617 8.43103 17.1646 7.80108 19 7.80108C20.8354 7.80108 22.3831 8.43103 23.6429 9.69092C24.9028 10.9508 25.5328 12.4984 25.5328 14.3338C25.5328 16.1692 24.9028 17.7169 23.6429 18.9768C22.3831 20.2366 20.8354 20.8666 19 20.8666ZM19 37.6651C16.418 37.6651 13.9916 37.1751 11.7207 36.1952C9.44976 35.2153 7.47438 33.8854 5.79453 32.2056C4.11468 30.5257 2.7848 28.5503 1.80489 26.2794C0.824978 24.0085 0.335022 21.5821 0.335022 19.0001C0.335022 16.4181 0.824978 13.9916 1.80489 11.7207C2.7848 9.44983 4.11468 7.47445 5.79453 5.7946C7.47438 4.11475 9.44976 2.78486 11.7207 1.80495C13.9916 0.825039 16.418 0.335083 19 0.335083C21.582 0.335083 24.0085 0.825039 26.2794 1.80495C28.5503 2.78486 30.5257 4.11475 32.2055 5.7946C33.8854 7.47445 35.2152 9.44983 36.1952 11.7207C37.1751 13.9916 37.665 16.4181 37.665 19.0001C37.665 21.5821 37.1751 24.0085 36.1952 26.2794C35.2152 28.5503 33.8854 30.5257 32.2055 32.2056C30.5257 33.8854 28.5503 35.2153 26.2794 36.1952C24.0085 37.1751 21.582 37.6651 19 37.6651Z" fill="url(#paint0_linear_540_733)"/>
<defs>
<linearGradient id="paint0_linear_540_733" x1="0.335022" y1="19.0001" x2="37.665" y2="19.0001" gradientUnits="userSpaceOnUse">
<stop stop-color="#006BFF"/>
<stop offset="1" stop-color="#2D83FA"/>
</linearGradient>
</defs>
</svg>
