<svg viewBox="0 0 512 512" xmlns="http://www.w3.org/2000/svg">
  <defs>
    <linearGradient id="grad1" x1="0%" y1="0%" x2="100%" y2="100%">
      <stop offset="0%" style="stop-color:#1976D2;stop-opacity:1" />
      <stop offset="100%" style="stop-color:#1565C0;stop-opacity:1" />
    </linearGradient>
  </defs>
  
  <!-- Background circle -->
  <circle cx="256" cy="256" r="230" fill="url(#grad1)" stroke="#0D47A1" stroke-width="8"/>
  
  <!-- Court lines -->
  <rect x="80" y="130" width="352" height="252" fill="none" stroke="white" stroke-width="6" rx="16"/>
  <rect x="140" y="170" width="232" height="172" fill="none" stroke="white" stroke-width="4" rx="12"/>
  <rect x="200" y="210" width="112" height="92" fill="none" stroke="white" stroke-width="3" rx="8"/>
  
  <!-- Center circle -->
  <circle cx="256" cy="256" r="35" fill="none" stroke="white" stroke-width="4"/>
  <circle cx="256" cy="256" r="8" fill="white"/>
  
  <!-- Robot icon -->
  <circle cx="256" cy="256" r="20" fill="#FF5722"/>
  <rect x="246" y="246" width="20" height="20" rx="4" fill="#FF5722"/>
  
  <!-- Control arrows around robot -->
  <path d="M 256 220 L 266 230 L 246 230 Z" fill="white" opacity="0.9"/>
  <path d="M 256 292 L 266 282 L 246 282 Z" fill="white" opacity="0.9"/>
  <path d="M 230 256 L 240 246 L 240 266 Z" fill="white" opacity="0.9"/>
  <path d="M 282 256 L 272 246 L 272 266 Z" fill="white" opacity="0.9"/>
  
  <!-- Title text at bottom -->
  <text x="256" y="450" font-family="Arial, sans-serif" font-size="32" font-weight="bold" text-anchor="middle" fill="white">CourtLine</text>
  <text x="256" y="480" font-family="Arial, sans-serif" font-size="24" font-weight="normal" text-anchor="middle" fill="white" opacity="0.8">Pro</text>
</svg>